<?xml version="1.0" encoding="utf-8"?>
<!-- Generator: Adobe Illustrator 19.0.0, SVG Export Plug-In . SVG Version: 6.00 Build 0)  -->
<svg version="1.1" xmlns="http://www.w3.org/2000/svg" xmlns:xlink="http://www.w3.org/1999/xlink" x="0px" y="0px"
	 viewBox="0 0 750 500" style="enable-background:new 0 0 750 500;" xml:space="preserve">
<style type="text/css">
	.st0{fill:#F3F6F9;}
	.st1{opacity:0.18;fill:#9BCBD9;}
	.st2{opacity:0.24;}
	.st3{fill:none;stroke:#6CA7B5;stroke-width:0.779;stroke-miterlimit:10;}
	.st4{fill:#6CA7B5;}
	.st5{opacity:0.43;}
	.st6{fill:none;stroke:#FFFFFF;stroke-width:0.7047;stroke-linecap:round;stroke-linejoin:round;stroke-miterlimit:10;}
	.st7{fill:#5B9BA5;}
	.st8{fill:none;stroke:#FFFFFF;stroke-width:1.1364;stroke-linecap:round;stroke-linejoin:round;stroke-miterlimit:10;}
	.st9{fill:#79B1BA;}
	.st10{fill:none;stroke:#FFFFFF;stroke-width:0.8174;stroke-linecap:round;stroke-linejoin:round;stroke-miterlimit:10;}
	.st11{fill:none;stroke:#FFFFFF;stroke-width:0.7781;stroke-linecap:round;stroke-linejoin:round;stroke-miterlimit:10;}
	.st12{fill:none;stroke:#FFFFFF;stroke-width:0.9754;stroke-linecap:round;stroke-linejoin:round;stroke-miterlimit:10;}
	.st13{fill:none;stroke:#FFFFFF;stroke-width:0.8986;stroke-linecap:round;stroke-linejoin:round;stroke-miterlimit:10;}
	.st14{fill:none;stroke:#6CA7B5;stroke-width:2;stroke-linecap:round;stroke-linejoin:round;stroke-miterlimit:10;}
	.st15{opacity:0.56;}
	.st16{opacity:0.39;}
	.st17{fill:#FFFFFF;}
	.st18{fill:#A3D1DE;}
	.st19{fill:#E1F6FB;}
	.st20{fill:none;stroke:#A3D1DE;stroke-miterlimit:10;}
	.st21{fill:#ACDAE5;}
	.st22{clip-path:url(#SVGID_2_);}
	.st23{fill:#FEC9CF;}
	.st24{fill:#212A6B;}
	.st25{fill:#FFCAD0;}
	.st26{fill:#23585E;}
	.st27{fill:#E7EAFD;}
	.st28{fill:#EE84AA;}
	.st29{fill:#561E15;}
	.st30{fill:#0E1235;}
	.st31{fill:none;stroke:#561E15;stroke-width:1.0274;stroke-linecap:round;stroke-linejoin:round;stroke-miterlimit:10;}
	.st32{fill:none;stroke:#EE84AA;stroke-width:0.7706;stroke-linecap:round;stroke-linejoin:round;stroke-miterlimit:10;}
	.st33{fill:#172156;}
	.st34{fill:#1A4A4C;}
	.st35{fill:#21565C;}
	.st36{fill:#FEB161;}
	.st37{fill:#255C63;}
	.st38{fill:#194248;}
	.st39{fill:none;stroke:#194248;stroke-linecap:round;stroke-linejoin:round;stroke-miterlimit:10;}
	.st40{fill:#F75959;}
	.st41{fill:#FF6666;}
	.st42{fill:none;stroke:#561E15;stroke-linecap:round;stroke-linejoin:round;stroke-miterlimit:10;}
	.st43{fill:none;stroke:#EE84AA;stroke-width:0.75;stroke-linecap:round;stroke-linejoin:round;stroke-miterlimit:10;}
	.st44{fill:#265F66;}
	.st45{fill:#2C7277;}
	.st46{fill:#29686D;}
	.st47{fill:#87BCCA;}
	.st48{fill:#6CABBC;}
	.st49{fill:none;stroke:#6CABBC;stroke-miterlimit:10;}
	.st50{fill:none;stroke:#FFFFFF;stroke-width:2;stroke-linecap:round;stroke-linejoin:round;stroke-miterlimit:10;}
	.st51{fill:none;stroke:#FFFFFF;stroke-width:2.2165;stroke-linecap:round;stroke-linejoin:round;stroke-miterlimit:10;}
</style>
<g id="BACKGROUND">
	<g>
		<rect class="st0" width="700" height="500"/>
		<path class="st1" d="M61.6,437.3c-7.2-5.3-13.7-11.6-19-19.1c-15.5-21.7-19.4-50.5-15.7-76.5c1.5-10.8,6.3-16.7,10.5-26.2
			c5.7-12.7,8.4-28.5,9.5-42.3c2.1-25.5-4.5-50.8-6.4-76.3c-1.6-21.8,0.6-47.7,15.3-65.2c15.6-18.6,43.8-23,66.7-23.1
			c34.5-0.1,67.5,4.1,101.6-3c34.2-7.1,65.1-25.1,95.2-42c40.8-22.9,86.5-45.2,132.4-36.4c20.6,4,39.4,13.9,59,21.3
			c38.9,14.6,81.3,0.8,120.2,15.4c21.6,8.1,41,26.6,43.1,49.6c1.8,18.9-7.9,36.6-15.5,54c-6.9,15.8-14.1,37.6-3.4,53.1
			c9.4,13.6,20.9,27.2,31.3,40.3c22.2,28.1,48.3,57.6,51.1,95c3.2,43.8-29.1,84.6-69.3,102.4c-40.2,17.8-86.3,16.4-129.6,9
			c-43.3-7.4-85.5-19.5-129-25c-46.4-5.9-88-5.5-134.3,2.6c-44.6,7.9-89.3,18.1-134.6,16.4C113,460.3,83.6,453.5,61.6,437.3z"/>
	</g>
</g>
<g id="OBJECTS">
	<g>
		<g class="st2">
			<path class="st3" d="M385.7,415.7c1.3-7,5.5-13.4,11.3-17.4"/>
			<path class="st3" d="M385.5,417.6c0.2-5.8,2.5-19.8,7.8-28.6"/>
			<path class="st3" d="M385.6,416.9c0.9-10.4,0.8-21.9-0.8-32.1"/>
			<path class="st4" d="M397.3,395.2c1.2-2.2,2.9-4.4,5.4-4.9c2.1-0.4,4.1,0.5,6.2,0.9c1.7,0.3,3.5,0.3,5.3,0.4
				c1.8,0.2,3.6,0.6,4.9,1.7c1.4,1.1,2.1,3.1,1.4,4.7c-0.9,2-3.4,2.5-5.5,2.5c-3.7-0.1-7.3-1.2-11-1.7c-1.8-0.2-3.6-0.3-5.4,0
				c-1.4,0.2-3.4,1.5-4.6,1.3C395.4,398.7,396.3,397,397.3,395.2z"/>
			<path class="st4" d="M396,380.7c1.7-3.8,4.5-7.4,8.4-8.5c3.4-0.9,6.9,0.1,10.4,0.2c1.6,0,3.3-0.1,4.9,0.1c1.6,0.2,3.2,1,4.1,2.4
				c1.3,2.2,0.1,5.2-2.1,6.6c-2.1,1.4-4.9,1.4-7.4,1.1c-2.5-0.3-5-0.9-7.6-0.7c-3.2,0.2-6.3,1.8-8.8,3.8c-2,1.6-3.6,4.2-5.6,5.5
				C391.2,390.3,395.3,382.1,396,380.7z"/>
			<path class="st4" d="M387.9,374.7c-0.6-3.9-3.6-7.2-4.6-11.1c-0.7-2.9-0.3-6-1-8.9c-0.6-2.4-2.1-4.6-4.1-6.1
				c-1.4-1.1-3.2-1.8-4.9-1.5c-2.6,0.5-4.4,3.3-4.4,6c0,2.7,1.3,5.2,2.7,7.5c1.5,2.3,3.1,4.4,4,7c1.3,3.6,0.8,7.7,2.2,11.2
				c0.6,1.6,1.5,3,2.6,4.2c0.7,0.8,3.1,3.1,4.2,2.9c1.2-0.2,2.1-4,2.5-5C387.9,378.9,388.2,376.7,387.9,374.7z"/>
			<path class="st3" d="M385.5,415.9c-0.7-9.2-3-19.5-8.2-27.2"/>
			<path class="st4" d="M376.6,381.7c-1-2.8-2.5-5.4-4.7-7.3c-2.3-1.9-5.1-2.9-8-3.7c-3-0.8-6-1.3-9.1-1.1c-3.1,0.2-6.1,1.2-8.5,3.2
				c-1,0.9-2,2-2.3,3.4c-0.3,1.3,0.1,2.9,1.2,3.7c0.8,0.6,1.9,0.7,2.9,0.8c4.5,0.2,9.1,0,13.5,0.6s9,2.4,11.9,5.9
				c0.7,0.8,1.3,1.8,2.1,2.5c0.4,0.4,1.8,1.4,2.4,0.9c0.6-0.4,0.1-1.8,0-2.4C377.8,385.9,377.4,383.8,376.6,381.7z"/>
			<path class="st3" d="M385.3,416.9c-0.4-8-4-15.8-9.8-21.3"/>
			<path class="st4" d="M372.7,390.9c-2.1-1.1-4.4-1.8-6.6-2.4c-2.2-0.6-4.5-1.2-6.7-0.8c-2.5,0.5-4.5,2.2-6.4,3.8
				c-1.5,1.3-3,2.5-4.1,4.1c-0.6,0.8-1.1,1.7-0.8,2.6c0.4,1.2,1.8,1.6,3.1,1.5c2.2-0.1,4.2-1.2,6.3-2c3.3-1.3,6.8-1.9,10.3-1.9
				c3.2,0,6.7-0.1,9.7,1.2c-0.6-0.3-1.5-2.7-1.9-3.3c-0.6-1-1.3-1.9-2.3-2.5C373,391.1,372.9,391,372.7,390.9z"/>
		</g>
		<g class="st5">
			<g>
				<path class="st4" d="M610.5,407.4c1.2-3.1,3.3-6.1,6.2-7.7c2.6-1.5,5.9-1.9,8.1-4.1c1.8-1.8,2.4-4.3,3.2-6.6s2-4.9,4.2-5.9
					c2.6-1.2,5.5,0,7.8,1.5c2.3,1.5,4.6,3.3,7.5,3.2c2.2-0.1,4.4-1.4,6.6-1.5c3.1-0.2,5.8,1.8,8.1,3.7c1.7,1.4,3.5,2.9,4.1,5
					c0.7,2.6-0.6,5.6-2.8,7.4c-2.2,1.8-5,2.5-7.7,2.6c-2.5,0.1-5.3-0.2-7.1,1.7c-1.7,1.9-1.2,4.8-2.4,7c-1.2,2.3-3.9,3.5-6.4,3.5
					s-4.8-1-7.1-1.9c-2.3-0.9-4.6-1.8-7.1-1.7c-2.8,0.1-5.4,1.5-8,2.6c-2.3,0.9-6.5,2.7-8.3,0.3
					C607.8,414.4,609.6,409.7,610.5,407.4z"/>
				<path class="st6" d="M609.8,416.2c13.3-11.4,28.8-19,45.6-22.2"/>
			</g>
			<g>
				<path class="st7" d="M623,398.6c0.3-3.8-0.4-7.7,0.8-11.3c2.2-6.4,9.9-9.7,11.8-16.1c2.3-7.7-4.7-15.6-3.5-23.5
					c0.5-3.4,2.4-6.3,3.6-9.5c1.2-3.2,1.5-7.1-0.8-9.6c-2.4-2.6-6.9-2.3-9.8-0.2s-4.6,5.4-5.9,8.7c-1.4,3.3-2.5,6.7-4.8,9.5
					c-4.2,5-11.7,7.1-14,13.2c-2.3,6.2,2.1,12.7,2.9,19.3c0.6,5-0.9,9.9-2.3,14.7c-1.3,4.8-2.5,9.9-1.3,14.8
					c1.6,6.4,7.5,10.6,13,6.4C618.3,410.8,622.4,405.7,623,398.6z"/>
				<path class="st8" d="M609.2,416.5c-2.2-23,2.9-48,14.7-67.9"/>
			</g>
			<g>
				<path class="st9" d="M594.5,407.8c-2.4-3.4-3.8-7.7-7.1-10.3c-3.8-3-9-3-13.8-3.4c-4.8-0.4-10.2-1.7-12.5-6
					c-1.2-2.3-1.2-5.1-2.1-7.6c-0.9-2.7-2.9-5-4.2-7.6c-1.3-2.6-2.1-5.8-0.5-8.3c1.6-2.5,5-3.2,7.9-2.4c2.8,0.8,5.2,2.8,7.3,4.8
					c2.1,2,4.2,4.2,6.8,5.6c4.3,2.2,9.5,1.8,14.3,1.6c4.9-0.2,10.2,0,13.9,3.1c3.1,2.6,4.5,6.6,5.8,10.4c1.8,5.4,3.7,10.9,5.4,16.3
					c1.1,3.4,3.2,8.5-0.3,11.2C609.2,419.7,598.1,412.8,594.5,407.8z"/>
				<path class="st10" d="M613.5,415.2c-7.7-17.9-24.1-33.2-43.6-39.9"/>
			</g>
		</g>
		<g class="st5">
			<g>
				<path class="st9" d="M145.4,409.4c2.2-3.3,3.5-7.5,6.5-9.9c3.4-2.8,8.1-2.4,12.4-2.4c4.3,0,9.2-1,11.2-5.2
					c1.1-2.3,1.1-5.1,1.9-7.6c0.9-2.7,2.6-4.9,3.8-7.4c1.2-2.5,1.9-5.8,0.5-8.3c-1.4-2.6-4.5-3.6-7-3c-2.5,0.6-4.6,2.4-6.6,4.3
					c-1.9,1.9-3.8,4-6.1,5.1c-3.9,1.9-8.5,1.1-12.9,0.6c-4.4-0.6-9.1-0.7-12.5,2.1c-2.8,2.4-4.1,6.3-5.2,10.1
					c-1.7,5.4-3.4,10.7-5,16.1c-1,3.3-2.9,8.4,0.2,11.3C132.1,420.3,142.2,414.2,145.4,409.4z"/>
				<path class="st11" d="M128.4,415.5c7.1-17.5,21.8-31.7,39.4-37.1"/>
			</g>
			<g>
				<path class="st7" d="M118.7,400.1c-0.2-3.5,0.3-7.1-0.7-10.4c-1.8-5.8-7.9-8.9-9.4-14.8c-1.8-7.1,3.8-14.3,2.8-21.6
					c-0.4-3.1-2-5.8-2.9-8.7c-1-2.9-1.2-6.6,0.7-8.8c2-2.4,5.5-2.1,7.8-0.2c2.3,1.9,3.7,5,4.7,8c1.1,3,2,6.2,3.9,8.7
					c3.3,4.6,9.3,6.6,11.2,12.2c1.9,5.7-1.7,11.7-2.3,17.7c-0.5,4.6,0.7,9.1,1.8,13.5c1.1,4.4,2,9.1,1,13.6c-1.3,5.9-6,9.7-10.4,5.9
					C122.5,411.4,119.2,406.7,118.7,400.1z"/>
				<path class="st12" d="M129.7,416.6c1.8-21.2-2.3-44.1-11.7-62.4"/>
			</g>
			<g>
				<path class="st4" d="M129.4,404.5c-1.5-4.3-4.1-8.4-7.6-10.9c-3.2-2.2-7.2-3-9.8-6.1c-2.2-2.5-3-6-4-9.2c-1-3.2-2.5-6.7-5.2-8.3
					c-3.2-1.9-6.7-0.4-9.4,1.4c-2.7,1.8-5.5,4.1-8.9,3.7c-2.7-0.3-5.3-2.2-8-2.6c-3.8-0.5-6.9,2-9.7,4.3c-2,1.7-4.1,3.6-4.8,6.4
					c-0.8,3.5,0.9,7.7,3.5,10.3c2.7,2.6,6.1,3.8,9.4,4.1c3,0.3,6.4,0.1,8.6,2.8c2.1,2.7,1.6,6.6,3.1,9.7c1.5,3.2,4.8,5,7.8,5.2
					c3,0.2,5.8-0.9,8.5-2s5.5-2.1,8.6-1.7c3.4,0.4,6.6,2.4,9.8,4.1c2.8,1.5,7.9,4.1,10,1.1C132.9,414.1,130.6,407.6,129.4,404.5z"/>
				<path class="st13" d="M130.5,416.4c-16.3-16.5-35.2-27.9-55.5-33.5"/>
			</g>
		</g>
	</g>
	<g>
		<g>
			<circle class="st14" cx="594.3" cy="127" r="5.7"/>
			<line class="st14" x1="598.4" y1="131" x2="602.5" y2="135"/>
		</g>
		<g>
			<line class="st14" x1="386.4" y1="71.7" x2="392.5" y2="77.7"/>
			<line class="st14" x1="392.5" y1="71.7" x2="386.4" y2="77.7"/>
		</g>
		<g>
			<line class="st14" x1="484" y1="375.3" x2="490" y2="381.4"/>
			<line class="st14" x1="490" y1="375.3" x2="484" y2="381.4"/>
		</g>
		<g>
			<line class="st14" x1="67.8" y1="320.6" x2="67.8" y2="329.2"/>
			<line class="st14" x1="72" y1="324.9" x2="63.5" y2="324.9"/>
		</g>
		<circle class="st14" cx="107.8" cy="268.3" r="5.2"/>
		<circle class="st14" cx="314.4" cy="354.2" r="5.2"/>
		<circle class="st14" cx="623.9" cy="275" r="5.2"/>
	</g>
	<g class="st15">
		<g class="st16">
			<g>
				<circle class="st4" cx="25.3" cy="153.1" r="1.9"/>
				<circle class="st4" cx="38.4" cy="153.1" r="1.9"/>
				<circle class="st4" cx="51.5" cy="153.1" r="1.9"/>
				<circle class="st4" cx="64.6" cy="153.1" r="1.9"/>
				<circle class="st4" cx="77.8" cy="153.1" r="1.9"/>
				<circle class="st4" cx="90.9" cy="153.1" r="1.9"/>
				<circle class="st4" cx="104" cy="153.1" r="1.9"/>
			</g>
			<g>
				<circle class="st4" cx="25.3" cy="166.2" r="1.9"/>
				<circle class="st4" cx="38.4" cy="166.2" r="1.9"/>
				<circle class="st4" cx="51.5" cy="166.2" r="1.9"/>
				<circle class="st4" cx="64.6" cy="166.2" r="1.9"/>
				<circle class="st4" cx="77.8" cy="166.2" r="1.9"/>
				<circle class="st4" cx="90.9" cy="166.2" r="1.9"/>
				<circle class="st4" cx="104" cy="166.2" r="1.9"/>
			</g>
			<g>
				<circle class="st4" cx="25.3" cy="179.3" r="1.9"/>
				<circle class="st4" cx="38.4" cy="179.3" r="1.9"/>
				<circle class="st4" cx="51.5" cy="179.3" r="1.9"/>
				<circle class="st4" cx="64.6" cy="179.3" r="1.9"/>
				<circle class="st4" cx="77.8" cy="179.3" r="1.9"/>
				<circle class="st4" cx="90.9" cy="179.3" r="1.9"/>
				<circle class="st4" cx="104" cy="179.3" r="1.9"/>
			</g>
			<g>
				<circle class="st4" cx="25.3" cy="192.5" r="1.9"/>
				<circle class="st4" cx="38.4" cy="192.5" r="1.9"/>
				<circle class="st4" cx="51.5" cy="192.5" r="1.9"/>
				<circle class="st4" cx="64.6" cy="192.5" r="1.9"/>
				<circle class="st4" cx="77.8" cy="192.5" r="1.9"/>
				<circle class="st4" cx="90.9" cy="192.5" r="1.9"/>
				<circle class="st4" cx="104" cy="192.5" r="1.9"/>
			</g>
		</g>
		<g class="st16">
			<g>
				<circle class="st4" cx="238.7" cy="377.2" r="1.9"/>
				<circle class="st4" cx="251.9" cy="377.2" r="1.9"/>
				<circle class="st4" cx="265" cy="377.2" r="1.9"/>
				<circle class="st4" cx="278.1" cy="377.2" r="1.9"/>
				<circle class="st4" cx="291.2" cy="377.2" r="1.9"/>
			</g>
			<g>
				<circle class="st4" cx="238.7" cy="390.3" r="1.9"/>
				<circle class="st4" cx="251.9" cy="390.3" r="1.9"/>
				<circle class="st4" cx="265" cy="390.3" r="1.9"/>
				<circle class="st4" cx="278.1" cy="390.3" r="1.9"/>
				<circle class="st4" cx="291.2" cy="390.3" r="1.9"/>
			</g>
		</g>
		<g class="st16">
			<g>
				<circle class="st4" cx="615.3" cy="94" r="1.9"/>
				<circle class="st4" cx="628.5" cy="94" r="1.9"/>
				<circle class="st4" cx="641.6" cy="94" r="1.9"/>
			</g>
			<g>
				<circle class="st4" cx="615.3" cy="107.1" r="1.9"/>
				<circle class="st4" cx="628.5" cy="107.1" r="1.9"/>
				<circle class="st4" cx="641.6" cy="107.1" r="1.9"/>
			</g>
		</g>
		<g class="st16">
			<g>
				<circle class="st4" cx="711.3" cy="258.2" r="1.9"/>
				<circle class="st4" cx="711.3" cy="271.3" r="1.9"/>
				<circle class="st4" cx="711.3" cy="284.5" r="1.9"/>
				<circle class="st4" cx="711.3" cy="297.6" r="1.9"/>
				<circle class="st4" cx="711.3" cy="310.7" r="1.9"/>
				<circle class="st4" cx="711.3" cy="323.8" r="1.9"/>
				<circle class="st4" cx="711.3" cy="337" r="1.9"/>
			</g>
			<g>
				<circle class="st4" cx="698.2" cy="258.2" r="1.9"/>
				<circle class="st4" cx="698.2" cy="271.3" r="1.9"/>
				<circle class="st4" cx="698.2" cy="284.5" r="1.9"/>
				<circle class="st4" cx="698.2" cy="297.6" r="1.9"/>
				<circle class="st4" cx="698.2" cy="310.7" r="1.9"/>
				<circle class="st4" cx="698.2" cy="323.8" r="1.9"/>
				<circle class="st4" cx="698.2" cy="337" r="1.9"/>
			</g>
			<g>
				<circle class="st4" cx="685.1" cy="258.2" r="1.9"/>
				<circle class="st4" cx="685.1" cy="271.3" r="1.9"/>
				<circle class="st4" cx="685.1" cy="284.5" r="1.9"/>
				<circle class="st4" cx="685.1" cy="297.6" r="1.9"/>
				<circle class="st4" cx="685.1" cy="310.7" r="1.9"/>
				<circle class="st4" cx="685.1" cy="323.8" r="1.9"/>
				<circle class="st4" cx="685.1" cy="337" r="1.9"/>
			</g>
			<g>
				<circle class="st4" cx="671.9" cy="258.2" r="1.9"/>
				<circle class="st4" cx="671.9" cy="271.3" r="1.9"/>
				<circle class="st4" cx="671.9" cy="284.5" r="1.9"/>
				<circle class="st4" cx="671.9" cy="297.6" r="1.9"/>
				<circle class="st4" cx="671.9" cy="310.7" r="1.9"/>
				<circle class="st4" cx="671.9" cy="323.8" r="1.9"/>
				<circle class="st4" cx="671.9" cy="337" r="1.9"/>
			</g>
		</g>
	</g>
	<g>
		<g>
			<path class="st4" d="M539.9,334H199.1c-6.5,0-11.7-5.2-11.7-11.7V114.2c0-6.5,5.2-11.7,11.7-11.7h340.8c6.5,0,11.7,5.2,11.7,11.7
				v208.1C551.6,328.8,546.4,334,539.9,334z"/>
			<path class="st17" d="M539.4,326H199.6c-5.3,0-9.5-4.3-9.5-9.5v-202c0-5.3,4.3-9.5,9.5-9.5h339.8c5.3,0,9.5,4.3,9.5,9.5v202
				C549,321.7,544.7,326,539.4,326z"/>
			<g>
				<path class="st18" d="M427.7,123.7v142.5c0,4.3-3.5,7.8-7.8,7.8H205.3c-1.9,0-3.7-0.7-5.1-1.9c-1.7-1.4-2.7-3.5-2.7-5.9V123.7
					c0-4.3,3.5-7.8,7.8-7.8h214.6c1.9,0,3.7,0.7,5.1,1.9C426.6,119.3,427.7,121.4,427.7,123.7z"/>
				<path class="st19" d="M533.8,176.9h-88.8c-4.3,0-7.8-3.5-7.8-7.8v-45.4c0-4.3,3.5-7.8,7.8-7.8h88.8c4.3,0,7.8,3.5,7.8,7.8v45.4
					C541.6,173.4,538.1,176.9,533.8,176.9z"/>
				<path class="st19" d="M533.8,253.6h-88.8c-4.3,0-7.8-3.5-7.8-7.8v-45.4c0-4.3,3.5-7.8,7.8-7.8h88.8c4.3,0,7.8,3.5,7.8,7.8v45.4
					C541.6,250.1,538.1,253.6,533.8,253.6z"/>
				<path class="st19" d="M533.8,326h-88.8c-4.3,0-7.8-3.5-7.8-7.8v-41c0-4.3,3.5-7.8,7.8-7.8h88.8c4.3,0,7.8,3.5,7.8,7.8v41
					C541.6,322.5,538.1,326,533.8,326z"/>
				<path class="st19" d="M314.9,289.3H200.3c-1.6,0-2.8-1.3-2.8-2.8v0c0-1.6,1.3-2.8,2.8-2.8h114.5c1.6,0,2.8,1.3,2.8,2.8v0
					C317.7,288.1,316.4,289.3,314.9,289.3z"/>
				<path class="st19" d="M314.9,315.9H200.3c-1.6,0-2.8-1.3-2.8-2.8v-11.3c0-1.6,1.3-2.8,2.8-2.8h114.5c1.6,0,2.8,1.3,2.8,2.8v11.3
					C317.7,314.7,316.4,315.9,314.9,315.9z"/>
				<path class="st19" d="M399.7,289.3h25.2c1.6,0,2.8-1.3,2.8-2.8v0c0-1.6-1.3-2.8-2.8-2.8h-25.2c-1.6,0-2.8,1.3-2.8,2.8v0
					C396.8,288.1,398.1,289.3,399.7,289.3z"/>
				<path class="st19" d="M356.9,289.3h25.2c1.6,0,2.8-1.3,2.8-2.8v0c0-1.6-1.3-2.8-2.8-2.8h-25.2c-1.6,0-2.8,1.3-2.8,2.8v0
					C354.1,288.1,355.4,289.3,356.9,289.3z"/>
				<path class="st19" d="M374.9,315.9h50c1.6,0,2.8-1.3,2.8-2.8v-11.3c0-1.6-1.3-2.8-2.8-2.8h-50c-1.6,0-2.8,1.3-2.8,2.8v11.3
					C372.1,314.7,373.3,315.9,374.9,315.9z"/>
				<g class="st2">
					<circle class="st20" cx="489.4" cy="146.4" r="15.8"/>
					<path class="st18" d="M495.2,145.1l-9-5.2c-1-0.6-2.2,0.1-2.2,1.3v10.4c0,1.1,1.2,1.8,2.2,1.3l9-5.2
						C496.2,147.1,496.2,145.7,495.2,145.1z"/>
				</g>
				<g class="st2">
					<circle class="st20" cx="489.4" cy="223.1" r="15.8"/>
					<path class="st18" d="M495.2,221.8l-9-5.2c-1-0.6-2.2,0.1-2.2,1.3v10.4c0,1.1,1.2,1.8,2.2,1.3l9-5.2
						C496.2,223.8,496.2,222.4,495.2,221.8z"/>
				</g>
				<g class="st2">
					<circle class="st20" cx="489.4" cy="297.7" r="15.8"/>
					<path class="st18" d="M495.2,296.4l-9-5.2c-1-0.6-2.2,0.1-2.2,1.3v10.4c0,1.1,1.2,1.8,2.2,1.3l9-5.2
						C496.2,298.4,496.2,296.9,495.2,296.4z"/>
				</g>
				<path class="st21" d="M425,117.8L200.2,272.2c-1.7-1.4-2.7-3.5-2.7-5.9V123.7c0-4.3,3.5-7.8,7.8-7.8h214.6
					C421.8,115.9,423.6,116.7,425,117.8z"/>
			</g>
		</g>
		<g>
			<defs>
				<rect id="SVGID_1_" x="197.5" y="78.5" width="259.1" height="195.6"/>
			</defs>
			<clipPath id="SVGID_2_">
				<use xlink:href="#SVGID_1_"  style="overflow:visible;"/>
			</clipPath>
			<g class="st22">
				<polygon class="st23" points="350.6,514.5 354,556.1 336.3,556.1 327.1,514.5 				"/>
				<path class="st24" d="M334.4,547.4c0,0-7.7,12.4-1.9,14.7c5.8,2.2,43.8,2.4,53.2,1c9.4-1.4-21-14.3-27.9-16.3
					C350.9,544.7,348.6,555.3,334.4,547.4z"/>
				<polygon class="st23" points="237.1,514.5 233.7,556.1 251.4,556.1 260.6,514.5 				"/>
				<path class="st25" d="M409.9,216.2c0,0,12.8-10.1,13.2-13c0.6-5.5,2.6-9.7,14.3-13.4c0,0,0.9,1.7-0.7,3.6
					c-1.8,2.1-3.2,2.8-3.2,2.8s3.1,1.2,7.7-2.4c4.6-3.6,6.6-6.7,8.5-6c0,0,2.3-2.1,3.4-1.8c0,0,0.8,0.2,0.6,1.1
					c1.8-0.3,1.4,4.9-1.8,9.2c-4.6,6.1-10.4,11.3-15.1,13.1c-3.6,1.3-18.2,16.2-18.2,16.2L409.9,216.2z"/>
				<path class="st26" d="M370.2,267.8c-5.6,1.9-36.7-45.9-36.7-45.9c-12-13.8-1.2-59.3,9.6-43.4c0,0,28.3,51.1,31.3,55.3
					C378.3,239,390.9,260.9,370.2,267.8z"/>
				<polygon class="st24" points="253.3,315.3 225.5,526.7 261.5,533.1 291.4,396.6 328.3,535.3 357.3,528.8 335.2,315.3 				"/>
				<path class="st26" d="M335.2,315.3h-81.9c0,0-6.3-2.8-0.8-14.9c2.1-4.5,1.2-16.1,0.8-32.1c-0.7-31.5-10.1-83.9,1.5-89.9
					c6.9-3.6,21.6-8.4,32.3-11.6c0.6-0.2,1.3-0.4,1.9-0.6c6.2-1.9,10.7-3.1,10.7-3.1s5.2,0.7,15.6,3.9c0.6,0.2,1.2,0.3,1.8,0.5
					c2.7,0.8,5.8,1.8,9.2,3c18.3,6.2,16.3,4,18.7,26.9C346.8,215.7,335.2,315.3,335.2,315.3z"/>
				<path class="st27" d="M317.1,167.6c-0.2,3.9-2,7.3-4.6,9.8c-2.7,2.6-6.3,4.1-10.3,4.1c-8.2,0-14.8-6.6-15-14.7
					c0.6-0.2,1.3-0.4,1.9-0.6c6.2-1.9,10.7-3.1,10.7-3.1s5.2,0.7,15.6,3.9C315.9,167.2,316.5,167.4,317.1,167.6z"/>
				<path class="st23" d="M315.3,134.8l-1.3,24.9l-0.4,7.1c-0.2,3-1.5,5.7-3.5,7.7c-2,1.9-4.8,3.1-7.8,3.1
					c-6.4,0-11.5-5.3-11.4-11.6l0.3-12.7l0.5-21.1L315.3,134.8z"/>
				<path class="st28" d="M315.3,139.8l-1.3,23.5c-11,0.4-19.1-4-22.8-10l0.5-16.1L315.3,139.8z"/>
				<path class="st29" d="M284.4,110.4c0,0-10.6-1.3-9.4,11.9c0.9,10.3,14.9,24,14.9,24S298.8,115.4,284.4,110.4z"/>
				<path class="st30" d="M327.6,120c-0.7,1.6-1.8,3.1-2.7,4.6c-0.9,1.5-1.6,3.3-1.4,5.1c-0.2-2.9-2.1-5.3-3.7-7.7
					c-1.6-2.4-3.1-5.3-2.4-8c0.8-2.7,5.6-6.9,8.5-5.1C329.1,110.7,328.9,117.1,327.6,120z"/>
				<path class="st25" d="M324,120.5c0,0,0.8,8.1-0.3,17.1c-1.3,10.4-0.8,22.6-16.2,23.4c-16.3,0.9-21.8-17.4-21.8-17.4
					s-8.7-1.6-9.3-7.5c-0.6-5.9,5.5-6.2,7.5-4.6c0,0,2.2-21.9,22.5-21.9C324.3,109.7,324,120.5,324,120.5z"/>
				<g>
					<circle class="st29" cx="303.2" cy="137.2" r="1.6"/>
					<circle class="st29" cx="317.8" cy="137.2" r="1.6"/>
					<path class="st31" d="M297.3,131.6c0,0,2.4-4,7.5-2.5"/>
					<path class="st31" d="M313.6,129c0,0,3.7-3.4,7.3,0.3"/>
					<path class="st32" d="M310.4,133c0,0,1.7,4.5,3.2,7.3c1.5,2.8-2.9,4-2.9,4"/>
					<path class="st32" d="M304.5,149.3c0,0,3.6,3.5,8.2,1.4"/>
					<path class="st32" d="M283.7,138c0,0-0.1-5-3.8-3.7"/>
				</g>
				<path class="st29" d="M288.6,114.6c0,0,9.2,9.4,4.2,12.9c-5.6,4-6.5,9.6-6.5,9.6s0.1-2-2.4-5.6C281.5,127.9,276,115,288.6,114.6
					z"/>
				<path class="st26" d="M370.2,267.8c6.7,4.3,57.5-49.9,57.5-49.9l-9-11.8c0,0-38.6,24.2-44.2,27.7
					C366.5,238.8,347.8,253.2,370.2,267.8z"/>
				<path class="st24" d="M253.3,547.4c0,0,7.7,12.4,1.9,14.7c-5.8,2.2-43.8,2.4-53.2,1c-9.4-1.4,21-14.3,27.9-16.3
					C236.9,544.7,239.1,555.3,253.3,547.4z"/>
				<polygon class="st33" points="291.4,396.6 301.3,351.8 297.1,418.1 				"/>
				<path class="st34" d="M343.2,236.3c0,0,2.3-24.8,1.9-32.7c0,0,3.2,20.8,3.3,40L343.2,236.3z"/>
				<path class="st26" d="M257.4,227.9c0,0,11.9-50.9-0.8-50.3c0,0-4.1,0.5-12.3,13.1c-5.7,8.8-11.9,24.1-23.2,48.9
					c-5.4,11.7-12.1,27.6,0.4,28.5c6.7,0.5,13.8-3.2,17.9-10.9C247.1,242.9,257.4,227.9,257.4,227.9z"/>
				<path class="st34" d="M268.1,291.2l64.7-15.3C332.8,276,312.4,291.2,268.1,291.2z"/>
				<g>
					<path class="st34" d="M250.7,238.1c0,0,10.4-18.5,16-27.5l-13,70.7C253.7,281.3,252.4,252.4,250.7,238.1z"/>
					<polygon class="st34" points="292.3,262.2 253.6,280.3 255.6,261.7 					"/>
				</g>
				<g>
					<g>
						<path class="st4" d="M316,264.2h-13.6c-2.8,0-4.8-2.5-4.3-5.2l6.4-34.9c0.4-2.1,2.2-3.6,4.3-3.6h13.6c2.8,0,4.8,2.5,4.3,5.2
							l-6.4,34.9C320,262.7,318.2,264.2,316,264.2z"/>
						<path class="st18" d="M317.7,265.7h-13.6c-2.8,0-4.8-2.5-4.3-5.2l6.4-34.9c0.4-2.1,2.2-3.6,4.3-3.6h13.6
							c2.8,0,4.8,2.5,4.3,5.2l-6.4,34.9C321.7,264.2,319.9,265.7,317.7,265.7z"/>
						<path class="st4" d="M310.4,235.2h-2.4c-0.5,0-0.9-0.5-0.8-1l1.6-8.5c0.1-0.4,0.4-0.7,0.8-0.7h2.4c0.5,0,0.9,0.5,0.8,1
							l-1.6,8.5C311.1,234.9,310.8,235.2,310.4,235.2z"/>
					</g>
					<path class="st25" d="M279.6,246.8c0,0,6.6-0.2,11.7-1.8c2.2-0.7,6.5-1.5,7.9-3.5c1.4-2.1,1.3-6.6,2.8-6.8
						c1.1-0.1,3.3,3.4,2.8,5.8c-0.6,2.3-0.8,3.6-1.7,4.7c-0.3,0.3,9,1,15-0.3c4.1-0.9,2.9,3.1,0.1,4.4c0,0,1,2.5-1.9,3.3
						c0,0,0,3.3-2.7,3.4c-0.3,0.8-0.8,2.4-3.2,3c-3.5,0.8-8.7,1.2-13.9,0.7c-2.7-0.2-15,1.9-15,1.9L279.6,246.8z"/>
					<path class="st26" d="M221.1,268.3c9.5,1.6,65.8-4.7,65.8-4.7l-1.4-19.7c0,0-45.9,2.1-52,1.6
						C213.2,243.6,209.3,266.2,221.1,268.3z"/>
				</g>
				<path class="st29" d="M290.9,99.8c1-1,2-2,3.4-2.2c1.4-0.2,2.9,1.1,2.5,2.4c4.6-2,9.5-3.5,14.4-4.5c1.2-0.2,2.6-0.4,3.7,0.1
					c1.1,0.5,1.9,2.1,1.1,3.1c2.4,0.9,5.1,0.3,7.6,0c2.5-0.3,5.5-0.2,7.2,1.7c1.6,1.8,1.6,4.4,1.6,6.8c-0.1,3.3-0.2,6.5-0.9,9.7
					c-1.1,4.7-3.7,9-7.3,12.3c1.1-3.7-0.8-7.7-3.8-10.1c-3-2.4-6.9-3.3-10.7-3.7c-4.5-0.5-9.2-0.4-13.7,0.3c-3.4,0.6-8.3,3-11.7,1.4
					C276.8,113.9,288,102.7,290.9,99.8z"/>
			</g>
		</g>
		<g>
			<path class="st35" d="M407,130.9h-47c-3.6,0-6.5-2.9-6.5-6.5v-19.7c0-3.6,2.9-6.5,6.5-6.5h47c3.6,0,6.5,2.9,6.5,6.5v19.7
				C413.5,128,410.6,130.9,407,130.9z"/>
			<polygon class="st35" points="363.5,128.8 363.5,137.8 373.1,128.1 			"/>
			<g>
				<circle class="st18" cx="367.2" cy="114.5" r="3.8"/>
				<circle class="st18" cx="383.4" cy="114.5" r="3.8"/>
				<circle class="st18" cx="399.7" cy="114.5" r="3.8"/>
			</g>
		</g>
	</g>
	<g>
		<g>
			<polygon class="st23" points="536.3,386.8 534.2,412.7 545.2,412.7 551,386.8 			"/>
			<path class="st36" d="M546.4,407.3c0,0,4.8,7.7,1.2,9.1c-3.6,1.4-27.3,1.5-33.1,0.6c-5.8-0.9,13.1-8.9,17.4-10.1
				C536.2,405.7,537.6,412.2,546.4,407.3z"/>
		</g>
		<g>
			<polygon class="st23" points="594.4,386.8 596.5,412.7 585.5,412.7 579.7,386.8 			"/>
			<path class="st36" d="M584.3,407.3c0,0-4.8,7.7-1.2,9.1c3.6,1.4,27.3,1.5,33.1,0.6c5.8-0.9-13.1-8.9-17.4-10.1
				C594.5,405.7,593.1,412.2,584.3,407.3z"/>
		</g>
		<path class="st37" d="M534.1,245.1l-5,155.3h23.3l5-103.5l20,106.4l25.4-4.2c0,0-22.9-116.1-26.8-154.1H534.1z"/>
		<polygon class="st38" points="557.4,297 554.4,275 556.2,313.3 		"/>
		<line class="st39" x1="568.5" y1="245.1" x2="595.5" y2="400.1"/>
		<path class="st29" d="M562.9,130.6c5,0,10.3,2.6,12,7.3c1.3,3.6,0.3,7.9,2.1,11.2c1.3,2.5,4,4.1,5.2,6.7
			c2.5,5.3-2.4,11.6-0.8,17.3c1.4,5.2,7.9,8.2,8.5,13.6c0.3,3.5-2.1,6.8-5.2,8.3c-3.1,1.5-6.8,1.5-10.2,0.9
			c-8.4-1.4-16.3-6-24.8-5.6c-3.5,0.2-7.2,1.2-10.4-0.1c-2.3-1-4-3-5.5-5c-1.7-2.3-3.3-5-3.2-7.8c0.2-4.2,4-7.1,6.3-10.7
			c2.3-3.6,3.3-8.1,2.7-12.4c-3.1-20.2,8.3-19.6,9.7-19.6c1.3,0,5.8-2.7,7.5-3.3C558.8,131,560.8,130.6,562.9,130.6z"/>
		<g>
			<path class="st25" d="M509.5,215.4c-4.8-3.8-24.4-16.8-24.6-18.6c-0.4-3.4-1.6-6.1-8.8-8.4c0,0-0.6,1.1,0.4,2.3
				c1.1,1.3,2,1.7,2,1.7s-1.9,0.7-4.8-1.6c-2.9-2.3-4.1-4.2-5.3-3.8c0,0-1.4-1.3-2.1-1.1c0,0-0.5,0.1-0.4,0.7
				c-1.1-0.2-0.9,3.1,1,5.7c2.8,3.8,7.8,6.7,10.8,7.9c2.2,0.8,16.6,22.2,26.3,24.5C506.8,225.3,511.7,217.2,509.5,215.4z"/>
			<path class="st25" d="M524.6,196.4c0,0-21.6,15.1-23.7,18.8c-2.1,3.7-0.5,13.8,9.1,7.3c9.6-6.4,24.8-18.1,24.8-18.1L524.6,196.4z
				"/>
			<path class="st40" d="M535.7,182.7c0,0-5.9,1.5-9.9,6.2c-3.3,4-8.7,10.3-8.7,10.3l16.4,12.7C533.6,212,537.6,188.8,535.7,182.7z"
				/>
		</g>
		<path class="st41" d="M576,245.1h-41.9c0,0,0.2-7.2-2.2-18.4c-2.3-11.2-1.2-17,1.2-22.8c2.3-5.8-1.8-19.3,2.7-21.2
			c1.8-0.8,5-2,8.1-3.3c0.8-0.3,1.6-0.6,2.3-0.9c3.6-1.4,6.7-2.6,6.7-2.6h7.5c0,0,5.2,1.7,10.5,3.9c0.7,0.3,1.4,0.6,2.1,0.9
			c0,0,0,0,0,0c2.7,1.1,5.3,2.3,7,3.4C585.7,187.6,576,245.1,576,245.1z"/>
		<g>
			<path class="st25" d="M550.3,157.5l0.8,15.5l0.2,4.4c0.1,1.9,0.9,3.6,2.2,4.8c1.3,1.2,3,1.9,4.9,1.9c4,0,7.2-3.3,7.1-7.3
				l-0.2-7.9l-0.3-13.1L550.3,157.5z"/>
			<path class="st28" d="M550.3,157.5l0.8,14.6c6.9,0.3,11.9-2.5,14.2-6.2l-0.3-10L550.3,157.5z"/>
			<path class="st25" d="M544.9,145.4c0,0-0.5,5.1,0.2,10.7c0.8,6.5,1.5,13.9,10.1,14.6c10.2,0.8,13.5-10.8,13.5-10.8
				s4.7-1.1,5.3-4.3c0.6-3.2-2.9-4.2-4.2-3.2c0,0-1.4-13.6-14-13.6C544.7,138.7,544.9,145.4,544.9,145.4z"/>
		</g>
		<path class="st37" d="M573.1,180.7C573.1,180.7,573.1,180.7,573.1,180.7c-8.6,10.5-18.7,10-18.7,10c-8-1.8-10.4-11.2-10.4-11.2
			c0.8-0.3,1.6-0.6,2.3-0.9c3.6-1.4,6.7-2.6,6.7-2.6h7.5c0,0,5.2,1.7,10.5,3.9C571.7,180.1,572.4,180.4,573.1,180.7z"/>
		<path class="st25" d="M571,179.9c-8.8,9.5-16.4,8.5-16.4,8.5c-8.2-3.1-8.4-9.8-8.4-9.8c3.6-1.4,6.7-2.6,6.7-2.6h7.6
			C560.4,176,565.6,177.7,571,179.9z"/>
		<path class="st29" d="M549.2,135.8c0,0,1.2,9.8-5.2,13.1C544.1,148.9,540.9,136.9,549.2,135.8z"/>
		<path class="st29" d="M547.3,136.7c0,0,2.3,8.6,7.8,9.1c5.6,0.5,4.6,5,9.5,5.5c2.9,0.3,4.3,3.4,4.3,3.4s0.4-3,3.1-4.1
			C574.7,149.5,565.7,126.8,547.3,136.7z"/>
		<g>
			<circle class="st29" cx="557.8" cy="157.4" r="1"/>
			<circle class="st29" cx="549" cy="157.4" r="1"/>
			<path class="st42" d="M561.3,154c0,0-1.4-2.4-4.5-1.5"/>
			<path class="st42" d="M551.5,152.4c0,0-2.2-2-4.4,0.2"/>
			<path class="st43" d="M553.4,154.8c0,0-1,2.7-1.9,4.4c-0.9,1.7,1.7,2.4,1.7,2.4"/>
			<path class="st43" d="M559.3,163.5c0,0-1.7,2.5-4.7,1.8"/>
			<path class="st43" d="M569.8,156.7c0,0,0-3,2.3-2.2"/>
		</g>
		<g>
			<path class="st44" d="M534.9,235.2h-38.4c-0.8,0-1.4-0.6-1.4-1.4l0,0c0-0.8,0.6-1.4,1.4-1.4h38.4c0.8,0,1.4,0.6,1.4,1.4l0,0
				C536.3,234.5,535.7,235.2,534.9,235.2z"/>
			<path class="st4" d="M537.8,232.4h-38.8l-7.4-29.7c-0.3-1.3,0.6-2.5,2-2.5h34.6c0.9,0,1.7,0.6,2,1.5L537.8,232.4z"/>
			<path class="st18" d="M535.2,232.4h-38.8l-7.4-29.7c-0.3-1.3,0.6-2.5,2-2.5h34.6c0.9,0,1.7,0.6,2,1.5L535.2,232.4z"/>
			<path class="st45" d="M564.7,235.2h-29.1c-0.7,0-1.3-0.6-1.3-1.3v-0.2c0-0.7,0.6-1.3,1.3-1.3h29.1c0.7,0,1.3,0.6,1.3,1.3v0.2
				C565.9,234.6,565.4,235.2,564.7,235.2z"/>
			
				<ellipse transform="matrix(0.9334 -0.3588 0.3588 0.9334 -43.2646 197.6247)" class="st4" cx="510.9" cy="215.4" rx="2.8" ry="3.6"/>
		</g>
		<polygon class="st40" points="578.1,232.4 575.6,199.8 580.4,213.5 		"/>
		<g>
			<path class="st25" d="M578.4,203.1c0,0,6,32.1,7.5,37.4c1,3.4,7.9,5.7,10.1,1.2c0.5-1,0.4-2.6,0.3-4.3
				c-0.3-10.4-7.6-36.8-7.6-36.8L578.4,203.1z"/>
			<path class="st41" d="M580.1,184.1c0,0,3.6,1.8,6.6,7c3,5.2,7.1,14.3,6.9,16.5c-1.6,4.3-13.9,8.7-13.9,8.7
				S571.4,189.2,580.1,184.1z"/>
			<path class="st25" d="M587,234.3c0,0-19-0.4-22.6-2.6c-4.9-2.9-6-1.7-8.8-2.4c-4.5-1.1-4-0.2-4-0.2s0.2,2.6,3.7,3
				c1.8,0.2,4.4,0.9,3.9,1.4c0,0-14.1,1.5-16.9,1.7s-1.5,2.4,0.7,2.9c0,0,1.3,1.6,3.4,1.1c0,0-0.5,0.9,5,0.9
				c5.4,0,10.9-2.9,13.6-1.6s17.6,7,27,5.7c4.5-0.6,4.5-2.8,4.5-5.1C596.4,235.2,593.5,234.7,587,234.3z"/>
		</g>
	</g>
	<g>
		<g>
			<polygon class="st23" points="193,386.8 186.7,412.7 175.7,412.7 178.3,386.8 			"/>
			<path class="st37" d="M174.5,407.3c0,0-4.8,7.7-1.2,9.1c3.6,1.4,27.3,1.5,33.1,0.6c5.8-0.9-13.1-8.9-17.4-10.1
				C184.7,405.7,183.4,412.2,174.5,407.3z"/>
		</g>
		<g>
			<polygon class="st23" points="158.2,386.8 154.4,412.7 143.4,412.7 143.6,386.8 			"/>
			<path class="st46" d="M142.2,407.3c0,0-4.8,7.7-1.2,9.1c3.6,1.4,27.3,1.5,33.1,0.6c5.8-0.9-13.1-8.9-17.4-10.1
				C152.4,405.7,151,412.2,142.2,407.3z"/>
		</g>
		<g>
			<path class="st47" d="M139.6,261.5l0.8,138.3H158l12.4-101.6l14.1,41.2l-10.6,60.4H193c0,0,16.8-52.2,16.1-62.4
				c-0.7-10.2-20-80.1-20-80.1L139.6,261.5z"/>
			<polygon class="st48" points="170.4,298.2 172.2,279.3 174.4,309.8 			"/>
			<line class="st49" x1="149.5" y1="259.8" x2="148.5" y2="399.8"/>
		</g>
		<path class="st25" d="M203.2,198.2c0,0,11.3,21.4,11.6,28c0.3,6.6-7,5.1-10.8-0.8c-3.8-5.9-9.8-22.8-9.8-22.8L203.2,198.2z"/>
		<g>
			<path class="st40" d="M205.4,200c0,0-3.3,5.8-11,9.3c-1.6,0.7-3-1.2-4-3.5c-1.2-2.7-1.9-5.8-1.9-5.8s-8.9-27.6-1.1-26.6
				c0,0,6.7,0.5,11.6,10.2c1.3,2.5,3.3,7.6,5,12.5C204.5,197.4,205,198.7,205.4,200z"/>
			<path class="st26" d="M205.4,200c0,0-3.3,5.8-11,9.3c-1.6,0.7-3-1.2-4-3.5c3.1-1.4,8.8-4.4,13.7-9.8
				C204.5,197.4,205,198.7,205.4,200z"/>
		</g>
		<path class="st41" d="M189.5,258.8c-4.9,5.6-37.5,4.8-49.8,2.7c-2.2-0.4-4.3-1.2-0.9-8.7c1.3-2.8,0.7-10,0.5-20
			c-0.4-19.6-6.3-52.2,0.9-56c4.3-2.2,13.5-5.2,20.1-7.2c0.4-0.1,0.8-0.2,1.2-0.3c3.9-1.2,6.6-1.9,6.6-1.9s3.2,0.5,9.7,2.4
			c0.4,0.1,0.7,0.2,1.1,0.3c1.7,0.5,3.6,1.1,5.7,1.8c4.1,1.4,7.1,2.2,7.8,3.6c1.9,3.6,1.2,9.9,1.3,19
			C194,205.9,193.8,253.8,189.5,258.8z"/>
		<polygon class="st40" points="137.7,210.6 144.8,193.4 139.6,237.5 		"/>
		<path class="st26" d="M179,170c-0.1,2.4-1.2,4.6-2.9,6.1c-1.7,1.6-3.9,2.6-6.4,2.6c-5.1,0-9.2-4.1-9.4-9.1
			c0.4-0.1,0.8-0.2,1.2-0.3c3.9-1.2,6.6-1.9,6.6-1.9s3.2,0.5,9.7,2.4C178.2,169.8,178.6,169.9,179,170z"/>
		<path class="st29" d="M158.6,134.4c0,0-4.2,0.4-5.8,7.4c-1.7,7.2,7.1,19.1,10.4,18.4C163.2,160.3,167.6,137.5,158.6,134.4z"/>
		<path class="st29" d="M185.5,140.4c-0.4,1-1.1,1.9-1.7,2.9c-0.6,1-1,2.1-0.9,3.2c-0.1-1.8-1.3-3.3-2.3-4.8c-1-1.5-2-3.3-1.5-5
			c0.5-1.7,3.5-4.3,5.3-3.2C186.5,134.6,186.3,138.6,185.5,140.4z"/>
		<g>
			<path class="st23" d="M177.8,149.6l-0.8,15.5l-0.2,4.4c-0.1,1.9-0.9,3.6-2.2,4.8c-1.3,1.2-3,1.9-4.9,1.9c-4,0-7.2-3.3-7.1-7.3
				l0.2-7.9l0.3-13.1L177.8,149.6z"/>
			<path class="st28" d="M177.8,152.7l-0.8,14.6c-6.9,0.3-11.9-2.5-14.2-6.2l0.3-10L177.8,152.7z"/>
			<path class="st25" d="M183.3,140.7c0,0,0.5,5.1-0.2,10.7c-0.8,6.5-0.5,14.1-10.1,14.6c-10.2,0.5-13.5-10.8-13.5-10.8
				s-5.4-1-5.8-4.7c-0.4-3.7,3.4-3.9,4.6-2.8c0,0,1.4-13.6,14-13.6C183.4,134,183.3,140.7,183.3,140.7z"/>
		</g>
		<g>
			<circle class="st29" cx="170.6" cy="150.5" r="1"/>
			<circle class="st29" cx="180.4" cy="150" r="1"/>
			<path class="st42" d="M166.7,147.6c0,0,1.5-2.5,4.7-1.6"/>
			<path class="st42" d="M176.8,146c0,0,2.3-2.1,4.6,0.2"/>
			<path class="st43" d="M174.8,148.5c0,0,1.1,2.8,2,4.5c0.9,1.7-1.8,2.5-1.8,2.5"/>
			<path class="st43" d="M171.2,158.6c0,0,2.2,2.2,5.1,0.8"/>
			<path class="st43" d="M158.2,151.6c0,0,0-3.1-2.4-2.3"/>
		</g>
		<path class="st29" d="M161.3,137.1c0,0,5.7,5.8,2.6,8.1c-3.5,2.5-4,6-4,6s0.1-1.2-1.5-3.5C156.8,145.3,153.4,137.3,161.3,137.1z"
			/>
		<path class="st29" d="M159.5,137.5c-1.9-3-0.5-8.6,5.5-9.5c6-0.9,10.1,0.4,12.4-3.7c2.2-4,9-6.6,11-0.7c2,5.9-2.6,14.9-8.4,14.6
			c-5.8-0.3-5.5-1-9.2,1.2C167.1,141.5,162.6,142.3,159.5,137.5z"/>
		<path class="st25" d="M130,199.3c0,0-11.3,21.4-11.6,28c-0.3,6.6,7,5.1,10.7-0.8c3.8-5.9,9.8-22.8,9.8-22.8L130,199.3z"/>
		<g>
			<path class="st25" d="M210.7,218.9c0,0-16.9-12.5-17.8-13.2c-1.6-1.2-4-3-4.9-3.6c-1.4-1-9.3-2.3-10.4-2.2c-1.1,0.2-4.2,0.7-5,1
				c-0.9,0.3,0.2,1.5,1.1,2c0.9,0.5,4.8,2.6,8.1,3.2c1.8,0.3,3.4,1.3,4.7,2.2c1,0.7,18.8,18.9,19.5,19.3L210.7,218.9z"/>
			<path class="st25" d="M189.8,203.6c0,0-6.4-6-7.3-5.9c-0.9,0.1-0.3,1.4,2.2,3.5c0.8,0.7,1.8,1.8,2.5,2.1
				C188.8,204,189.8,203.6,189.8,203.6z"/>
		</g>
		<g>
			<g>
				<path class="st4" d="M184.8,225.6l-23.2,2.8c-1.3,0.2-2.4-1.1-2.1-2.4l5.5-21.3c0.2-0.8,0.8-1.3,1.6-1.4l23.2-2.8
					c1.3-0.2,2.4,1.1,2.1,2.4l-5.5,21.3C186.2,224.9,185.6,225.5,184.8,225.6z"/>
				<path class="st18" d="M185.8,226.3l-23.2,2.8c-1.3,0.2-2.4-1.1-2.1-2.4l5.5-21.3c0.2-0.8,0.8-1.3,1.6-1.4l23.2-2.8
					c1.3-0.2,2.4,1.1,2.1,2.4l-5.5,21.3C187.2,225.6,186.6,226.2,185.8,226.3z"/>
				<path class="st4" d="M168.5,209.8l1.1-4.2c0.1-0.4-0.2-0.8-0.7-0.8l-1.1,0.1c-0.3,0-0.5,0.2-0.5,0.5l-1.1,4.2
					c-0.1,0.4,0.2,0.8,0.7,0.8l1.1-0.1C168.2,210.2,168.4,210,168.5,209.8z"/>
			</g>
			<path class="st25" d="M122.7,221c7.1,0.3,29.2-0.2,32.1-1.2c1.3-0.4,4.4-1.1,5.1-2.3c0.8-1.2,1.5-3.2,2.3-3.3
				c0.6-0.1,0.5,2,0.3,2.7c-0.4,1.4-0.6,2.1-1.1,2.7c-0.2,0.2,5.3,1,8.7,0.1c2.4-0.6,1.9,1.3,0.3,2.1c0,0,0.6,1.6-1,2.2
				c0,0,0.3,1.8-1.3,2c-0.2,0.4-0.7,1.3-2,1.6c-2,0.6-5.5,0.6-8.1,0.7c-1.6,0.1-31.7,4.8-37,3.4C118.8,231.1,120.4,220.9,122.7,221z
				"/>
		</g>
		<g>
			<path class="st41" d="M143,202.2c0,0-0.5,2-1.3,4c-0.9,2.2-2,4.5-3.2,4.3c0,0-15.6-4.9-15.1-6.5c0.4-1.2,1.1-2.7,1.9-4.5
				c2.6-5.4,6.7-12.4,8.4-15.1c5.7-9.3,8-8.1,8-8.1C149.6,175.9,143,202.2,143,202.2z"/>
			<path class="st26" d="M141.7,206.2c-0.9,2.2-2,4.5-3.2,4.3c0,0-15.6-4.9-15.1-6.5c0.4-1.2,1.1-2.7,1.9-4.5
				C128.2,200.9,136,204.5,141.7,206.2z"/>
		</g>
		<path class="st40" d="M146.7,250c0,0,26-4.2,40-12.5C186.7,237.5,171,253.2,146.7,250z"/>
	</g>
	<g>
		<path class="st41" d="M471,349.1h-67.6c-3.3,0-6-2.7-6-6v-32.7c0-3.3,2.7-6,6-6H471c3.3,0,6,2.7,6,6v32.7
			C477,346.4,474.3,349.1,471,349.1z"/>
		<g>
			<path class="st50" d="M404.5,337.5c6.3,0,6.3-7.5,12.6-7.5c6.3,0,6.3-10,12.6-10c6.3,0,6.3,3.8,12.6,3.8c6.3,0,6.3-9.3,12.6-9.3
				s6.3,14.5,12.6,14.5"/>
			<circle class="st17" cx="404.5" cy="337.5" r="1.8"/>
			<circle class="st17" cx="467.5" cy="329.1" r="1.8"/>
		</g>
	</g>
	<g>
		<path class="st41" d="M80,113.2h67.5c4.5,0,8.2-3.7,8.2-8.2V84.4c0-4.5-3.7-8.2-8.2-8.2H80c-4.5,0-8.2,3.7-8.2,8.2V105
			C71.8,109.5,75.4,113.2,80,113.2z"/>
		<polygon class="st41" points="145.6,111.1 145.6,120.1 136,110.4 		"/>
		<g>
			<g>
				<line class="st51" x1="79.5" y1="85.3" x2="98.3" y2="85.3"/>
				<line class="st51" x1="104.9" y1="85.3" x2="147.9" y2="85.3"/>
			</g>
			<g>
				<line class="st51" x1="79.5" y1="94.7" x2="114.4" y2="94.7"/>
				<line class="st51" x1="119.8" y1="94.7" x2="130.1" y2="94.7"/>
				<line class="st51" x1="135.6" y1="94.7" x2="147.9" y2="94.7"/>
			</g>
			<g>
				<line class="st51" x1="79.5" y1="104.1" x2="87.4" y2="104.1"/>
				<line class="st51" x1="92.3" y1="104.1" x2="120.8" y2="104.1"/>
			</g>
		</g>
	</g>
	<g>
		<path class="st41" d="M500.3,90.8H483c-3.2,0-5.8-2.6-5.8-5.8V67.6c0-3.2,2.6-5.8,5.8-5.8h17.3c3.2,0,5.8,2.6,5.8,5.8V85
			C506.1,88.2,503.5,90.8,500.3,90.8z"/>
		<path class="st17" d="M501.5,74.8l-0.4-1.9c-0.1-0.4-0.5-0.6-0.8-0.5l-1.1,0.3c-0.3,0.1-0.6-0.1-0.7-0.3c-0.4-0.7-1-1.3-1.6-1.8
			c-0.2-0.2-0.3-0.5-0.2-0.8l0.6-1.2c0.2-0.3,0-0.8-0.3-0.9l-1.8-0.8c-0.3-0.2-0.8,0-0.9,0.3l-0.6,1.3c-0.1,0.3-0.4,0.4-0.7,0.4
			c-0.4-0.1-0.8-0.1-1.1-0.1c-0.4,0-0.8,0-1.1,0.1c-0.3,0-0.6-0.1-0.7-0.4l-0.6-1.3c-0.2-0.3-0.6-0.5-0.9-0.3l-1.8,0.8
			c-0.3,0.2-0.5,0.6-0.3,0.9l0.6,1.2c0.1,0.3,0.1,0.6-0.2,0.8c-0.6,0.5-1.2,1.1-1.6,1.8c-0.2,0.3-0.5,0.4-0.7,0.3l-1.1-0.3
			c-0.4-0.1-0.7,0.1-0.8,0.5l-0.4,1.9c-0.1,0.4,0.1,0.7,0.5,0.8l1.4,0.3c0,0.2,0,0.4,0,0.6c0,1,0.2,1.9,0.5,2.7
			c0.1,0.3,0,0.6-0.2,0.8l-0.6,0.4c-0.3,0.2-0.3,0.7-0.1,1l1.2,1.5c0.2,0.3,0.7,0.3,1,0.1l0.4-0.3c0.3-0.2,0.6-0.2,0.9,0
			c0.8,0.6,1.7,1.1,2.7,1.4c0.3,0.1,0.5,0.4,0.5,0.7v0.4c0,0.4,0.3,0.7,0.7,0.7h1.9c0.4,0,0.7-0.3,0.7-0.7v-0.4
			c0-0.3,0.2-0.6,0.5-0.7c1-0.3,1.9-0.8,2.7-1.4c0.3-0.2,0.6-0.2,0.9,0l0.4,0.3c0.3,0.2,0.7,0.2,1-0.1l1.2-1.5
			c0.2-0.3,0.2-0.7-0.1-1l-0.6-0.4c-0.2-0.2-0.3-0.5-0.2-0.8c0.3-0.8,0.5-1.8,0.5-2.7c0-0.2,0-0.4,0-0.6l1.4-0.3
			C501.3,75.6,501.6,75.2,501.5,74.8z M491.6,81.5c-2.7,0-4.9-2.2-4.9-4.9c0-2.7,2.2-4.9,4.9-4.9c2.7,0,4.9,2.2,4.9,4.9
			C496.6,79.3,494.3,81.5,491.6,81.5z"/>
	</g>
	<g>
		<circle class="st35" cx="634.3" cy="191.4" r="20"/>
		<g>
			<circle class="st50" cx="634.3" cy="191.4" r="11.3"/>
			<polyline class="st50" points="634.3,184 634.3,191.4 630.4,195.3 			"/>
			<g>
				<g>
					<line class="st50" x1="634.3" y1="180.1" x2="634.3" y2="181.2"/>
					<line class="st50" x1="634.3" y1="201.6" x2="634.3" y2="202.6"/>
				</g>
				<g>
					<line class="st50" x1="645.5" y1="191.4" x2="644.5" y2="191.4"/>
					<line class="st50" x1="624.1" y1="191.4" x2="623" y2="191.4"/>
				</g>
			</g>
		</g>
	</g>
	<line class="st14" x1="58.3" y1="417.6" x2="680.8" y2="417.6"/>
</g>
</svg>
