<?xml version="1.0" encoding="utf-8"?>
<!-- Generator: Adobe Illustrator 19.0.0, SVG Export Plug-In . SVG Version: 6.00 Build 0)  -->
<svg version="1.1" xmlns="http://www.w3.org/2000/svg" xmlns:xlink="http://www.w3.org/1999/xlink" x="0px" y="0px"
	 viewBox="0 0 500 500" style="enable-background:new 0 0 500 500;" xml:space="preserve">
<style type="text/css">
	.st0{fill:#F3F6F9;}
	.st1{fill:#B8B8C4;}
	.st2{fill:#DEDEE0;}
	.st3{fill:#F5F4FE;}
	.st4{fill:none;stroke:#F3F6F9;stroke-width:7;stroke-miterlimit:10;}
	.st5{fill:#30E3CA;}
	.st6{fill:#02243E;}
	.st7{fill:#074266;}
	.st8{fill:#11779E;}
	.st9{fill:#F65C95;}
	.st10{fill:#DAE3FE;}
	.st11{opacity:0.6;fill:#A95C95;}
	.st12{clip-path:url(#SVGID_2_);}
	.st13{fill:#F7D4B5;}
	.st14{fill:#E0A6A2;}
	.st15{fill:#FFFFFF;}
	.st16{fill:#F7D4B5;stroke:#02243E;stroke-width:2.6359;stroke-linecap:round;stroke-linejoin:round;stroke-miterlimit:10;}
	.st17{fill:none;stroke:#02243E;stroke-width:2.6359;stroke-linecap:round;stroke-linejoin:round;stroke-miterlimit:10;}
	.st18{opacity:0.6;clip-path:url(#SVGID_4_);fill:#30BFCA;}
	.st19{fill:#FFB4D5;}
	.st20{opacity:0.3;fill:#E27D68;}
	.st21{opacity:0.6;fill:#02243E;}
	.st22{fill:none;stroke:#074266;stroke-width:2;stroke-miterlimit:10;}
	.st23{clip-path:url(#SVGID_6_);}
	.st24{fill:none;stroke:#DEDEE0;stroke-width:2;stroke-miterlimit:10;}
	.st25{clip-path:url(#SVGID_8_);}
	.st26{clip-path:url(#SVGID_10_);fill:#B8B8C4;}
	.st27{clip-path:url(#SVGID_10_);fill:#074266;}
	.st28{fill:none;stroke:#F5F4FE;stroke-width:3;stroke-miterlimit:10;}
	.st29{fill:none;stroke:#074266;stroke-width:4;stroke-linecap:round;stroke-miterlimit:10;}
</style>
<g id="BACKGROUND">
</g>
<g id="OBJECTS">
	<rect class="st0" width="500" height="500"/>
	<g>
		<path class="st1" d="M275.8,46.1v18.9h-236V46.1c0-5.3,4.3-9.5,9.5-9.5h216.9C271.5,36.5,275.8,40.8,275.8,46.1z"/>
		<path class="st2" d="M275.8,64.9v269.7c0,5.3-4.3,9.5-9.5,9.5H49.3c-5.3,0-9.5-4.3-9.5-9.5V64.9H275.8z"/>
		<circle class="st3" cx="259.5" cy="50.7" r="4.7"/>
		<circle class="st3" cx="243.9" cy="50.7" r="4.7"/>
		<circle class="st3" cx="228.3" cy="50.7" r="4.7"/>
		<rect x="58.7" y="80" class="st0" width="201" height="116.7"/>
		<line class="st4" x1="58.7" y1="215.9" x2="259.5" y2="215.9"/>
		<line class="st4" x1="58.7" y1="234.4" x2="259.5" y2="234.4"/>
		<line class="st4" x1="58.7" y1="252.9" x2="259.5" y2="252.9"/>
		<polygon class="st0" points="108.9,271.8 98.9,271.8 59.3,271.8 59.3,318.4 98.9,318.4 108.9,318.4 168.6,318.4 168.6,271.8 		"/>
		<line class="st4" x1="182.8" y1="275.5" x2="259.5" y2="275.5"/>
		<line class="st4" x1="182.8" y1="293.7" x2="259.5" y2="293.7"/>
		<line class="st4" x1="182.8" y1="312" x2="259.5" y2="312"/>
	</g>
	<g>
		<g>
			<path class="st5" d="M454.2,327.1c-0.9,0.3-2.2-0.5-3.4-1.5H296.5c-2.5,0-4.5,2-4.5,4.5l-10,91.6h171l8.8-81
				c0.3-2.8-0.6-5.5-2.4-7.6L454.2,327.1z"/>
			<rect x="243.3" y="421.6" class="st6" width="184" height="8.8"/>
			<rect x="427.3" y="421.6" class="st7" width="25.7" height="8.8"/>
			<path class="st8" d="M445.3,421.6h-171l10-91.6c0-2.5,2-4.5,4.5-4.5h162.1c2.5,0,4.5,2,4.5,4.5L445.3,421.6z"/>
			<polygon class="st6" points="439.3,415.3 280.2,415.3 290.2,331.9 449.3,331.9 			"/>
			<path class="st9" d="M438.3,348.6l-1,8H297l1.1-9.5c0.4-3.1,3-5.4,6.1-5.4h128.1C435.9,341.8,438.7,344.9,438.3,348.6z"/>
			<polygon class="st0" points="437.4,356.6 430.3,415.3 289.9,415.3 297,356.6 			"/>
			<polygon class="st5" points="427.5,363.5 421.9,410.4 297.8,410.4 303.4,363.5 			"/>
			<g>
				<circle class="st8" cx="361.5" cy="388.3" r="10.5"/>
				<polygon class="st10" points="358.3,394.7 358.3,381.8 366.9,388.3 				"/>
			</g>
		</g>
		<g>
			<rect x="108" y="430.5" class="st9" width="392" height="69.5"/>
			<rect x="95.7" y="430.5" class="st9" width="404.3" height="19.1"/>
			<polygon class="st11" points="500,449.6 108,449.6 108,473.6 500,455.6 			"/>
		</g>
	</g>
	<g>
		<defs>
			<rect id="SVGID_1_" width="500" height="500"/>
		</defs>
		<clipPath id="SVGID_2_">
			<use xlink:href="#SVGID_1_"  style="overflow:visible;"/>
		</clipPath>
		<g class="st12">
			<g>
				<g>
					<polygon class="st13" points="216.1,326.4 250.9,238 232.8,227.6 181.2,316.6 					"/>
					<path class="st13" d="M234.6,233.6c0,0-9.3-15.7-6.8-29.1c2.5-13.4-10-22.4-4.6-24.1c5.3-1.7,14.3,14.3,14.3,19
						c0,4.6,11.8-10.4,18.5-4.1c6.8,6.3,14.6,8.8,15.3,16.6c0.7,7.8-11.4,24.1-18.9,29c-7.5,4.9-9.3,8.8-11.4,9.1
						S234.6,233.6,234.6,233.6z"/>
					<path class="st14" d="M271.3,211.9c-0.7-7.8-8.6-10.4-15.3-16.6c-2.9-2.6-6.6-1.5-10,0.4c-0.3,0.6-0.6,1.3-1,2.1
						c-2.9,6.2-0.7,5.7,1.6,7.1c1.1,0.7,2,0.6,3.2-0.4c-0.5,0.8-0.9,1.5-1,1.8c-0.9,2.1,0.9,5.3,4.3,5.8c0.7,0.1,1.5-0.1,2.2-0.6
						c-1.4,2.7-0.5,3.6,1.6,4.5c1.3,0.5,1.9,0.6,2.9,0c-0.1,0.1-0.2,0.2-0.2,0.2s-1.6,2.1-0.4,4.3c1.2,2.2,2.3,3.6,6.7,0
						c1.5-1.2,3.2-2.5,4.6-3.7C271.1,214.9,271.4,213.3,271.3,211.9z"/>
					<g>
						<path class="st13" d="M248.7,187.4c1.1-2.4,4.8-3.5,7.8-2.3c3,1.2,3.9,2-1,9.7c-4.9,7.7-6.6,9.6-8.9,8.1
							c-2.3-1.5-4.4-0.9-1.6-7.1C247.9,189.5,247.6,189.8,248.7,187.4z"/>
						<path class="st13" d="M258,190.2c0,0,3.3-0.3,5.6,1.4c2.3,1.6,4,2.4,0,7.5c-4,5.1-7,11.5-10.4,11.1c-3.4-0.5-5.1-3.7-4.3-5.8
							C249.7,202.2,258,190.2,258,190.2z"/>
						<path class="st13" d="M271.2,202c-0.1,1.1-3.1,4.4-7.5,8.5c-4.4,4-4.5,4.6-6.8,3.6c-2.3-1-3.3-2-0.9-5.7
							c2.4-3.7,7.5-11.8,10.8-11.9C270.1,196.3,271.5,199.6,271.2,202z"/>
						<path class="st13" d="M259.6,214.1c0,0-1.6,2.1-0.4,4.3c1.2,2.2,2.3,3.6,6.7,0c4.4-3.5,9.8-7.1,9.5-10.1c-0.3-3-2.1-7-4.5-5.3
							C268.5,204.7,259.6,214.1,259.6,214.1z"/>
					</g>
					<g>
						<g>
							<g>
								<path class="st14" d="M255.5,193.1c-4.9,7.7-6.6,9.6-8.9,8.1c-1.3-0.8-2.5-1-2.8-2c-0.6,2.7,1.1,2.6,2.8,3.7
									c2.3,1.5,3.9-0.4,8.9-8.1c3-4.7,3.9-6.8,3.3-8C258.5,188.1,257.5,190,255.5,193.1z"/>
							</g>
							<g>
								<path class="st14" d="M263.5,197.4c-4,5.1-7,11.5-10.4,11.1c-2.4-0.3-4-2-4.4-3.8c-0.6,2.1,1.2,5,4.4,5.5
									c3.4,0.5,6.4-6,10.4-11.1c2.3-2.8,2.7-4.3,2.3-5.4C265.5,194.6,264.8,195.8,263.5,197.4z"/>
							</g>
							<g>
								<path class="st14" d="M263.7,208.7c-4.4,4-4.5,4.6-6.8,3.6c-1-0.5-1.8-0.9-2.1-1.6c-0.6,1.8,0.4,2.5,2.1,3.3
									c2.3,1,2.5,0.5,6.8-3.6c4.4-4,7.4-7.3,7.5-8.5c0.1-0.5,0-1,0-1.5C270.8,201.7,267.9,204.9,263.7,208.7z"/>
							</g>
							<g>
								<path class="st14" d="M265.9,216.8c-4.4,3.5-5.4,2.1-6.7,0c-0.2-0.3-0.3-0.6-0.4-0.9c-0.2,0.7-0.2,1.7,0.4,2.6
									c1.2,2.2,2.3,3.6,6.7,0c4.4-3.5,9.8-7.1,9.5-10.1c0-0.2-0.1-0.5-0.1-0.7C274.5,210.4,269.8,213.6,265.9,216.8z"/>
							</g>
						</g>
					</g>
					<path class="st14" d="M237.5,199.9L237.5,199.9c0,0,1.4,4,2,9.2c0.6,5,1.7-1.7,0.7-9.7C238.7,200.3,237.7,200.7,237.5,199.9z"
						/>
					<polygon class="st14" points="216.1,326.4 248.2,244.8 248.2,244.8 205.2,319.3 					"/>
				</g>
			</g>
			<path class="st8" d="M82.2,289.2c0,0-12.2,8.6-14,33.6s11.7,41,11.7,41L82.2,289.2z"/>
			<g>
				<g>
					<g>
						<g>
							<path class="st13" d="M157.5,259.4c0.7,7.2,2.3,13.4,4,18.5c-2.3,1.3-8.5,4.3-17.2,4.5c-9.4,0.1-16.1-3.2-18.3-4.5
								c2.8-5.4,6-13.7,6.6-24.1c0.1-2.6,0.1-5.1-0.1-7.5c-0.8-10-4-18-6.5-22.8h35.6c-0.2,0.6-0.4,1.2-0.6,1.8
								c-2.3,7.5-4.4,17.6-3.8,29.5C157.2,256.3,157.3,257.9,157.5,259.4z"/>
							<path class="st14" d="M131.7,240.1c8.7,6.7,17.6,12,25.5,15.5c0-0.3,0-0.6-0.1-0.8c-0.6-11.9,1.5-22,3.8-29.5
								c0.2-0.6,0.4-1.2,0.6-1.8H126C127.9,227.3,130.3,233,131.7,240.1z"/>
							<g>
								<path class="st13" d="M210.9,177.1c-0.8,38.2-1.9,66.3-28.1,69.9c-7,1-29.9-4.7-41.4-11.8c-23.6-14.6-49.5-40.9-48.9-66.6
									c0.8-38.2,25.5-61.3,55.3-60.7C177.7,108.5,211.7,138.9,210.9,177.1z"/>
							</g>
							<path class="st14" d="M131.5,203.7h-25.4c9.5,12.5,22.7,23.6,35.3,31.4c9.8,6.1,27.9,11.1,37.4,11.8c-2.3-1-4.4-2.1-6.2-3.3
								C157.2,234.1,140.9,219.7,131.5,203.7z"/>
							<path class="st14" d="M147.8,107.8c-3.1-0.1-6.2,0.1-9.2,0.6v68.5c24.3-0.4,57.5-12.1,69.8-18.6
								C200.2,129.4,172.6,108.4,147.8,107.8z"/>
							<path class="st15" d="M199.4,220.4c-15.8,16.4-24.5,0.4-27.3-6.4c-0.5-1.2,0.6-2.4,1.8-2.1l24.8,5.9
								C199.8,218.1,200.3,219.5,199.4,220.4z"/>
							<path class="st6" d="M170.7,107.2c-20.8-10.3-56.4-7.9-68.9,18.2c-0.6,1.4-1.7,2.5-3,3.3c-3.6,2-11.1,8.2-15,24.8
								c-5.5,23.6,12.4,55,23.2,66.3c27,28.3,28.1,6.5,27-10.8c-0.3-4.1-3.3-9.2-6.8-11.4c-5.1-3.2-8-7.6-7.2-15
								c1.2-11.7,4.9-14.4,11.7-15.9c6.7-1.4,3.9,1.3,8.3,5.7c30.2-0.5,74.4-18.6,74.6-22.2C216.1,128.1,189.8,117,170.7,107.2z"/>
							<path class="st6" d="M144.2,165.5c0,0-0.9,32.4-3.7,31.7c-2.9-0.7-5.3-23-7.8-33.5c-2.5-10.5-5.3-11.8-8.4-11.8
								s15.3,1.1,16.8,2.9C142.4,156.6,144.2,165.5,144.2,165.5z"/>
							
								<ellipse transform="matrix(0.9975 -7.018305e-002 7.018305e-002 0.9975 -12.4462 12.0113)" class="st6" cx="164.7" cy="183.1" rx="3.9" ry="7"/>
							<polyline class="st16" points="206.6,172.1 197.6,179.1 206.1,179.1 							"/>
							<path class="st16" d="M194.5,168.2c0,0,7.4-8.2,10.7-9.1"/>
							<path class="st17" d="M152.4,166.7c0,0,21.6-1.5,25.7,3.5"/>
							<path class="st14" d="M131.2,173.6c0.8,4.9,2.9,18,2.9,18s-11.2-0.9-9.2-11.3C126.3,172.9,131.2,173.6,131.2,173.6z"/>
							<path class="st16" d="M189,180.4c0,0-0.8,10,1.2,12.7c0,0,8.2-1.8,9.7,3.6c1.5,5.4-3.4,10.2-8.4,10.6"/>
						</g>
					</g>
					<path class="st8" d="M119.9,279.2c0,0,6.1-10.5,8.3-11.7c2.2-1.2,30.9-0.5,32.7,1c1.7,1.5,6.1,11.9,6.1,11.9L119.9,279.2z"/>
					<path class="st5" d="M213.9,371.8c-0.5-34.4-0.9-36-5.5-81.9c-1-10-53.5-12.3-53.5-12.3h-10.3h-0.6l0,0h-0.6
						c0,0-7.8,0.1-10.3,0c-20.9-1-37.3,2.8-48.6,10c-15.7,9.9-9.8,41.9-10.4,76.3c-0.2,14.2-1,138.8-5.7,144.2H133h10.3h0.6l0,0h0.6
						h10.3h64.7C214.9,502.7,214.1,386.1,213.9,371.8z"/>
					<g>
						<defs>
							<path id="SVGID_3_" d="M213.9,371.8c-0.5-34.4-0.9-36-5.5-81.9c-1-10-53.5-12.3-53.5-12.3h-10.3h-0.6l0,0h-0.6
								c0,0-7.8,0.1-10.3,0c-20.9-1-38.1-2.3-47.3,1.6c-17.1,7.2-11.2,50.3-11.7,84.6c-0.2,14.2-1,138.8-5.7,144.2H133h10.3h0.6l0,0
								h0.6h10.3h64.7C214.9,502.7,214.1,386.1,213.9,371.8z"/>
						</defs>
						<clipPath id="SVGID_4_">
							<use xlink:href="#SVGID_3_"  style="overflow:visible;"/>
						</clipPath>
						<polygon class="st18" points="189.2,331.2 216.3,478.3 219.6,351.8 						"/>
					</g>
				</g>
			</g>
			<g>
				<g>
					<path class="st13" d="M216.3,374.5l35.1,48.3c5.5,7.5,15.6,9.9,23.8,5.6l0,0c9.1-4.8,12.6-16,7.9-25.1l-25.5-49.3L216.3,374.5z
						"/>
					<path class="st14" d="M257.7,353.8l-41.4,20.6l11.7,16.1c5.6-1.8,11.9-4.4,18.6-8.2c7.8-4.4,14.1-9.1,18.9-13.3L257.7,353.8z"
						/>
					<polygon class="st13" points="269.1,430.2 363.5,419.6 359.8,403.3 261.5,394.8 					"/>
					<g>
						<path class="st14" d="M400.9,410.5c0,0,1.5,3.9,2.1,6.5c0.6,2.6,2.4,3.5,4.1,2.6c1.7-0.9,0.7-10.7,0.7-10.7L400.9,410.5z"/>
						<path class="st14" d="M394.2,410.5c0,0,1.5,3.9,2.1,6.5c0.6,2.6,2.4,3.5,4.1,2.6c1.7-0.9,0.7-10.7,0.7-10.7L394.2,410.5z"/>
						<path class="st13" d="M363.5,419.6c0,0,4.8,3.6,17.7,2.8c12.8-0.8,18.7-7.9,20.7-9.9c1.1-1.1,5.1-1.2,8.1,1
							c2.7,1.9,2.5,6.1,5.6,6.1c2.7,0,2.7-5.1,1.3-8.3c-0.9-2-9.8-9.8-12.3-10.9c-2.5-1.2-4.8-3.7-8.3-3.2s-7.2-1.6-12.8,0
							c-5.7,1.5-23.7,6-23.7,6L363.5,419.6z"/>
					</g>
				</g>
				<path class="st8" d="M195.5,282.8c0,0,25.2,3.6,41.1,23.5c10.3,13,27.7,53,27.7,53c-5,4.6-11.9,10.1-20.8,15
					c-10,5.5-19.2,8.6-26.3,10.4c-5.8-11.4-11.6-22.9-17.3-34.3c-2.9-3.6-16.8-21.6-13.2-45.2C188.1,295.1,192.3,287.4,195.5,282.8z
					"/>
			</g>
		</g>
		<g class="st12">
			<path class="st19" d="M502.3,430.5h-24.4c-1.7,0-3.2-1.3-3.3-3l-6.6-22.1h44.3l-6.6,22.1C505.5,429.2,504,430.5,502.3,430.5z"/>
			<g>
				<path class="st6" d="M471.8,395.3c0,0-15.8-45.9-19.3-53.6c-3.5-7.7,7.7,8.1,11.2,15c3.5,6.9,19.3,38.5,19.3,38.5H471.8z"/>
				<path class="st8" d="M505.3,395.3c0,0,15.8-45.9,19.3-53.6c3.5-7.7-7.7,8.1-11.2,15s-19.3,38.5-19.3,38.5H505.3z"/>
				<path class="st6" d="M502.2,397.3c0,0,8.9-46.6,10-55.9c1.2-9.3-22.2,55.9-22.2,55.9H502.2z"/>
				<path class="st8" d="M494.2,397.3c0,0,5-57.4,1.9-62.5c-3.1-5-11.6,62.5-11.6,62.5H494.2z"/>
				<path class="st6" d="M490.1,397.3c0,0-2.9-55.5-7.1-60.5c-4.2-5-4.6,58.6-4.6,58.6L490.1,397.3z"/>
				<path class="st8" d="M488.5,397c0,0-11.7-50.6-17.5-54.9c-5.8-4.2,5,53.2,5,53.2L488.5,397z"/>
			</g>
			<path class="st19" d="M514.4,405.4h-48.6c-1.2,0-2.1-0.9-2.1-2.1v-7.3c0-1.2,0.9-2.1,2.1-2.1h48.6c1.2,0,2.1,0.9,2.1,2.1v7.3
				C516.5,404.4,515.6,405.4,514.4,405.4z"/>
			<polygon class="st20" points="512.3,405.4 467.9,405.4 471.8,418.4 512,408 			"/>
		</g>
	</g>
	<g>
		<g>
			<path class="st8" d="M128.7,438.3H56.1c-18.8,0-34-15.2-34-34v-48.5c0-18.8,15.2-34,34-34h72.6c18.8,0,34,15.2,34,34v48.5
				C162.6,423.1,147.4,438.3,128.7,438.3z"/>
			<path class="st6" d="M116.2,438.3H43.6c-18.8,0-34-15.2-34-34v-48.5c0-18.8,15.2-34,34-34h72.6c18.8,0,34,15.2,34,34v48.5
				C150.1,423.1,134.9,438.3,116.2,438.3z"/>
			<path class="st8" d="M95.7,500H64.1V371.6c0-8.7,7.1-15.8,15.8-15.8l0,0c8.7,0,15.8,7.1,15.8,15.8V500z"/>
			<path class="st6" d="M89,500H57.4V371.6c0-8.7,7.1-15.8,15.8-15.8h0c8.7,0,15.8,7.1,15.8,15.8V500z"/>
			<polygon class="st21" points="57.4,438.3 57.4,389.9 47.5,438.3 			"/>
		</g>
		<g>
			<g>
				<path class="st5" d="M457.6,75V54.9c0-1.4-1.1-2.5-2.5-2.5H313.7c-1.4,0-2.5,1.1-2.5,2.5V75c0,1.4,1.1,2.5,2.5,2.5h141.5
					C456.5,77.4,457.6,76.3,457.6,75z"/>
				<g>
					<line class="st22" x1="447" y1="52.5" x2="447" y2="59.2"/>
					<line class="st22" x1="441.3" y1="52.5" x2="441.3" y2="59.2"/>
					<line class="st22" x1="435.5" y1="52.5" x2="435.5" y2="59.2"/>
					<line class="st22" x1="429.8" y1="52.5" x2="429.8" y2="59.2"/>
					<line class="st22" x1="424.1" y1="52.5" x2="424.1" y2="59.2"/>
					<line class="st22" x1="418.4" y1="52.5" x2="418.4" y2="59.2"/>
					<line class="st22" x1="412.7" y1="52.5" x2="412.7" y2="59.2"/>
					<line class="st22" x1="407" y1="52.5" x2="407" y2="59.2"/>
					<line class="st22" x1="401.3" y1="52.5" x2="401.3" y2="59.2"/>
					<line class="st22" x1="395.6" y1="52.5" x2="395.6" y2="59.2"/>
					<line class="st22" x1="389.9" y1="52.5" x2="389.9" y2="59.2"/>
					<line class="st22" x1="384.2" y1="52.5" x2="384.2" y2="59.2"/>
					<line class="st22" x1="378.4" y1="52.5" x2="378.4" y2="59.2"/>
					<line class="st22" x1="372.7" y1="52.5" x2="372.7" y2="59.2"/>
					<line class="st22" x1="367" y1="52.5" x2="367" y2="59.2"/>
					<line class="st22" x1="361.3" y1="52.5" x2="361.3" y2="59.2"/>
					<line class="st22" x1="355.6" y1="52.5" x2="355.6" y2="59.2"/>
					<line class="st22" x1="349.9" y1="52.5" x2="349.9" y2="59.2"/>
					<line class="st22" x1="344.2" y1="52.5" x2="344.2" y2="59.2"/>
					<line class="st22" x1="338.5" y1="52.5" x2="338.5" y2="59.2"/>
					<line class="st22" x1="332.8" y1="52.5" x2="332.8" y2="59.2"/>
					<line class="st22" x1="327.1" y1="52.5" x2="327.1" y2="59.2"/>
					<line class="st22" x1="321.4" y1="52.5" x2="321.4" y2="59.2"/>
				</g>
			</g>
			<g>
				<g>
					<path class="st9" d="M438.6,302.6H315.3c-5.9,0-10.7-4.8-10.7-10.7v-65.5c0-5.9,4.8-10.7,10.7-10.7h123.3
						c5.9,0,10.7,4.8,10.7,10.7v65.5C449.3,297.8,444.5,302.6,438.6,302.6z"/>
					<polygon class="st9" points="324,292.8 324,319.3 339.5,292.8 					"/>
				</g>
				<g>
					<path class="st8" d="M391.3,280h-65.8c-4.6,0-8.4-3.8-8.4-8.4v-2.9c0-4.6,3.8-8.4,8.4-8.4h65.8V280z"/>
					<path class="st3" d="M432.2,280h-45.8c-4.6,0-8.4-3.8-8.4-8.4v-2.9c0-4.6,3.8-8.4,8.4-8.4h45.8V280z"/>
					<g>
						<defs>
							<path id="SVGID_5_" d="M432.2,280h-45.8c-4.6,0-8.4-3.8-8.4-8.4v-2.9c0-4.6,3.8-8.4,8.4-8.4h45.8V280z"/>
						</defs>
						<clipPath id="SVGID_6_">
							<use xlink:href="#SVGID_5_"  style="overflow:visible;"/>
						</clipPath>
						<g class="st23">
							<line class="st24" x1="375.2" y1="263.2" x2="438.3" y2="263.2"/>
							<line class="st24" x1="375.2" y1="266.7" x2="438.3" y2="266.7"/>
							<line class="st24" x1="375.2" y1="270.2" x2="438.3" y2="270.2"/>
							<line class="st24" x1="375.2" y1="273.7" x2="438.3" y2="273.7"/>
							<line class="st24" x1="375.2" y1="277.2" x2="438.3" y2="277.2"/>
						</g>
					</g>
				</g>
				<g>
					<path class="st7" d="M385.2,260.5h-45.8c-4.6,0-8.4-3.8-8.4-8.4v-2.9c0-4.6,3.8-8.4,8.4-8.4h45.8V260.5z"/>
					<path class="st3" d="M426.2,260.5h-45.8c-4.6,0-8.4-3.8-8.4-8.4v-2.9c0-4.6,3.8-8.4,8.4-8.4h45.8V260.5z"/>
					<g>
						<defs>
							<path id="SVGID_7_" d="M426.2,260.5h-45.8c-4.6,0-8.4-3.8-8.4-8.4v-2.9c0-4.6,3.8-8.4,8.4-8.4h45.8V260.5z"/>
						</defs>
						<clipPath id="SVGID_8_">
							<use xlink:href="#SVGID_7_"  style="overflow:visible;"/>
						</clipPath>
						<g class="st25">
							<line class="st24" x1="369.2" y1="243.7" x2="432.3" y2="243.7"/>
							<line class="st24" x1="369.2" y1="247.2" x2="432.3" y2="247.2"/>
							<line class="st24" x1="369.2" y1="250.7" x2="432.3" y2="250.7"/>
							<line class="st24" x1="369.2" y1="254.2" x2="432.3" y2="254.2"/>
							<line class="st24" x1="369.2" y1="257.7" x2="432.3" y2="257.7"/>
						</g>
					</g>
				</g>
			</g>
			<g>
				<path class="st7" d="M375.8,195.3h-63.1c-4.4,0-7.9-3.5-7.9-7.9V113c0-4.4,3.5-7.9,7.9-7.9h63.1c4.4,0,7.9,3.5,7.9,7.9v74.4
					C383.7,191.7,380.1,195.3,375.8,195.3z"/>
				<polygon class="st7" points="319.1,188 319.1,207.6 330.5,188 				"/>
			</g>
			<g>
				<g>
					<g>
						
							<rect x="346.8" y="70.3" transform="matrix(0.9459 0.3243 -0.3243 0.9459 56.2393 -107.0556)" class="st2" width="4.9" height="89.7"/>
						
							<rect x="351.4" y="71.9" transform="matrix(0.9459 0.3243 -0.3243 0.9459 57.0014 -108.4658)" class="st1" width="4.9" height="89.7"/>
						
							<rect x="356.1" y="73.5" transform="matrix(0.9459 0.3243 -0.3243 0.9459 57.759 -109.8701)" class="st2" width="4.9" height="89.7"/>
						
							<rect x="360.7" y="75.1" transform="matrix(0.9459 0.3243 -0.3243 0.9459 58.524 -111.2841)" class="st1" width="4.9" height="89.7"/>
					</g>
					<path class="st3" d="M339.9,175.2l-3.4,3.8c-0.8,0.9-2.3,0.4-2.4-0.8l-0.4-5.1L339.9,175.2z"/>
					<polygon class="st9" points="350.9,163.1 339.9,175.2 333.7,173.1 332.4,156.8 					"/>
					
						<rect x="361.7" y="71.1" transform="matrix(0.9459 0.3243 -0.3243 0.9459 43.8029 -116.5047)" class="st6" width="19.5" height="4.2"/>
					<path class="st9" d="M377.3,56.1L377.3,56.1c-5.1-1.7-10.6,1-12.4,6.1l-2,5.8l18.4,6.3l2-5.8C385.1,63.4,382.3,57.9,377.3,56.1
						z"/>
				</g>
			</g>
			<g>
				<path class="st1" d="M431,179.9l-24.7-13.3c-2.2-1.2-3-3.9-1.8-6.1l0,0c1.2-2.2,3.9-3,6.1-1.8l24.7,13.3c2.2,1.2,3,3.9,1.8,6.1
					l0,0C435.9,180.3,433.2,181.1,431,179.9z"/>
				<path class="st7" d="M412.6,190.9l-5.3-2.9c-4.6-2.5-6.3-8.2-3.8-12.8l0,0l22,11.8v0C422.9,191.7,417.2,193.4,412.6,190.9z"/>
				<g>
					<defs>
						<path id="SVGID_9_" d="M426.8,187.8l-24.7-13.3c-2.2-1.2-3-3.9-1.8-6.1l0,0c1.2-2.2,3.9-3,6.1-1.8l24.7,13.3
							c2.2,1.2,3,3.9,1.8,6.1l0,0C431.7,188.2,428.9,189,426.8,187.8z"/>
					</defs>
					<clipPath id="SVGID_10_">
						<use xlink:href="#SVGID_9_"  style="overflow:visible;"/>
					</clipPath>
					<path class="st26" d="M426.8,187.8l-24.7-13.3c-2.2-1.2-3-3.9-1.8-6.1l0,0c1.2-2.2,3.9-3,6.1-1.8l24.7,13.3
						c2.2,1.2,3,3.9,1.8,6.1l0,0C431.7,188.2,428.9,189,426.8,187.8z"/>
					<polygon class="st27" points="431,179.9 397.2,166.8 399.4,162.9 					"/>
				</g>
				<path class="st9" d="M457.8,149.5c6.1-11.3,1.8-25.4-9.5-31.5c-11.3-6.1-25.4-1.8-31.5,9.5c-1.6,2.9-2.4,6-2.7,9.1l-2.1,23
					l10.8,5.8l10.8,5.8l18-14.4C454.2,154.9,456.3,152.4,457.8,149.5z"/>
				<path class="st28" d="M419.2,163.4l11.6-21.7c1.1-2.1,3.7-2.8,5.8-1.7l0,0c2.1,1.1,2.8,3.7,1.7,5.8l-11.6,21.7"/>
				<g>
					<line class="st29" x1="457.5" y1="101.1" x2="452.6" y2="110.1"/>
					<line class="st29" x1="443.9" y1="97.8" x2="442.6" y2="106.9"/>
					<line class="st29" x1="430.8" y1="101.8" x2="432" y2="107.3"/>
					<line class="st29" x1="476.2" y1="121.8" x2="466.7" y2="125.6"/>
					<line class="st29" x1="466.1" y1="112.1" x2="461" y2="116.6"/>
				</g>
			</g>
			<g>
				<path class="st9" d="M402.3,91.2l2.5,6.7c0,0.1,0.1,0.2,0.2,0.2l6.7,2.5c0.3,0.1,0.3,0.6,0,0.7l-6.7,2.5c-0.1,0-0.2,0.1-0.2,0.2
					l-2.5,6.7c-0.1,0.3-0.6,0.3-0.7,0l-2.5-6.7c0-0.1-0.1-0.2-0.2-0.2l-6.7-2.5c-0.3-0.1-0.3-0.6,0-0.7l6.7-2.5
					c0.1,0,0.2-0.1,0.2-0.2l2.5-6.7C401.8,90.9,402.2,90.9,402.3,91.2z"/>
				<path class="st9" d="M298.4,26.4l1.7,4.4c0,0.1,0.1,0.1,0.1,0.1l4.4,1.7c0.2,0.1,0.2,0.4,0,0.5l-4.4,1.7c-0.1,0-0.1,0.1-0.1,0.1
					l-1.7,4.4c-0.1,0.2-0.4,0.2-0.5,0l-1.7-4.4c0-0.1-0.1-0.1-0.1-0.1l-4.4-1.7c-0.2-0.1-0.2-0.4,0-0.5l4.4-1.7
					c0.1,0,0.1-0.1,0.1-0.1l1.7-4.4C298,26.2,298.3,26.2,298.4,26.4z"/>
				<path class="st9" d="M321.6,125.7l1.7,4.4c0,0.1,0.1,0.1,0.1,0.1l4.4,1.7c0.2,0.1,0.2,0.4,0,0.5l-4.4,1.7
					c-0.1,0-0.1,0.1-0.1,0.1l-1.7,4.4c-0.1,0.2-0.4,0.2-0.5,0l-1.7-4.4c0-0.1-0.1-0.1-0.1-0.1l-4.4-1.7c-0.2-0.1-0.2-0.4,0-0.5
					l4.4-1.7c0.1,0,0.1-0.1,0.1-0.1l1.7-4.4C321.2,125.5,321.5,125.5,321.6,125.7z"/>
			</g>
		</g>
	</g>
</g>
</svg>
