<?xml version="1.0" encoding="utf-8"?>
<!-- Generator: Adobe Illustrator 19.0.0, SVG Export Plug-In . SVG Version: 6.00 Build 0)  -->
<svg version="1.1" id="Capa_1" xmlns="http://www.w3.org/2000/svg" xmlns:xlink="http://www.w3.org/1999/xlink" x="0px" y="0px"
	 viewBox="0 0 2354 1912" style="enable-background:new 0 0 2354 1912;" xml:space="preserve">
<style type="text/css">
	.st0{fill:#F3F6F9;}
	.st1{fill:none;stroke:#FFFFFF;stroke-width:4.6862;stroke-linecap:round;stroke-miterlimit:10;}
	.st2{fill:#FFFFFF;}
	.st3{fill:#98ACC0;}
	.st4{fill:#C1CCD8;}
	.st5{fill:#004F82;}
	.st6{fill:#003C58;}
	.st7{fill:#001F33;}
	.st8{fill:#003047;}
	.st9{fill:#5E5398;}
	.st10{fill:#E9C6BF;}
	.st11{fill:none;stroke:#D8AAA2;stroke-width:1.3926;stroke-linecap:round;stroke-miterlimit:10;}
	.st12{fill:none;stroke:#D7A47D;stroke-width:1.3926;stroke-linecap:round;stroke-miterlimit:10;}
	.st13{fill:none;stroke:#003C58;stroke-width:1.3926;stroke-linecap:round;stroke-miterlimit:10;}
	.st14{fill:#CDCED3;}
	.st15{fill:#EAF1F7;}
	.st16{fill:none;stroke:#343079;stroke-width:2.449;stroke-linecap:round;stroke-miterlimit:10;}
	.st17{fill:none;stroke:#002E44;stroke-width:1.5295;stroke-linecap:round;stroke-miterlimit:10;}
	.st18{fill:#475256;}
	.st19{fill:#92C3D2;}
	.st20{fill:none;stroke:#66A0B3;stroke-width:2.449;stroke-linecap:round;stroke-miterlimit:10;}
	.st21{fill:#6A8EC5;}
	.st22{fill:#D6E5F1;}
	.st23{fill:#C64832;}
	.st24{fill:#C4E0F5;}
	.st25{fill:none;stroke:#D7A47D;stroke-width:6.063;stroke-linecap:round;stroke-miterlimit:10;}
	.st26{fill:none;stroke:#D8AAA2;stroke-width:4.5767;stroke-linecap:round;stroke-miterlimit:10;}
	.st27{fill:none;stroke:#D7A47D;stroke-width:4.0134;stroke-linecap:round;stroke-miterlimit:10;}
	.st28{fill:none;stroke:#003C58;stroke-width:4.0134;stroke-linecap:round;stroke-miterlimit:10;}
	.st29{fill:#E5F1FA;}
	.st30{fill:#B9CFE2;}
</style>
<rect class="st0" width="2347.7" height="1911.9"/>
<g>
	<line class="st1" x1="677.4" y1="688" x2="677.4" y2="637.9"/>
	<line class="st1" x1="652.3" y1="662.9" x2="702.4" y2="662.9"/>
</g>
<g>
	<line class="st1" x1="140.9" y1="1199.3" x2="140.9" y2="1149.2"/>
	<line class="st1" x1="115.8" y1="1174.3" x2="165.9" y2="1174.3"/>
</g>
<g>
	<line class="st1" x1="490.9" y1="340.6" x2="490.9" y2="290.6"/>
	<line class="st1" x1="465.8" y1="315.6" x2="515.9" y2="315.6"/>
</g>
<g>
	<line class="st1" x1="1540.2" y1="390.7" x2="1540.2" y2="340.6"/>
	<line class="st1" x1="1515.2" y1="365.7" x2="1565.2" y2="365.7"/>
</g>
<g>
	<line class="st1" x1="2054.7" y1="713" x2="2054.7" y2="662.9"/>
	<line class="st1" x1="2029.7" y1="688" x2="2079.8" y2="688"/>
</g>
<g>
	<line class="st1" x1="2079.8" y1="1407.3" x2="2079.8" y2="1357.2"/>
	<line class="st1" x1="2054.7" y1="1382.3" x2="2104.8" y2="1382.3"/>
</g>
<path class="st2" d="M2164.1,1059.9h-563.7c-37.6,0-68.1-37.3-68.1-83.4c0-46.1,30.5-83.4,68.1-83.4h563.7
	c37.6,0,68.1-37.3,68.1-83.4c0-46.1-30.5-83.4-68.1-83.4h-225.1c37.6,0,68.1-37.4,68.1-83.4c0-46.1-30.5-83.4-68.1-83.4h-373.2
	c-37.6,0-68.1-37.3-68.1-83.4c0-46.1,30.5-83.4,68.1-83.4h256.1c37.6,0,68.1-37.3,68.1-83.4c0-46.1-30.5-83.4-68.1-83.4H162
	c-37.6,0-68.1,37.3-68.1,83.4c0,46.1,30.5,83.4,68.1,83.4h117.1c-37.6,0-68.1,37.3-68.1,83.4c0,46.1,30.5,83.4,68.1,83.4h268.4
	c37.6,0,68.1,37.4,68.1,83.4c0,46.1-30.5,83.4-68.1,83.4H279.1c-37.6,0-68.1,37.3-68.1,83.4c0,46.1,30.5,83.4,68.1,83.4h547.5
	c37.6,0,68.1,37.4,68.1,83.4c0,46.1-30.5,83.4-68.1,83.4H279.1c-37.6,0-68.1,37.4-68.1,83.4c0,46.1,30.5,83.4,68.1,83.4h151.3
	c37.6,0,68.1,37.3,68.1,83.4c0,46.1-30.5,83.4-68.1,83.4H162c-37.6,0-68.1,37.3-68.1,83.4c0,46.1,30.5,83.4,68.1,83.4H2047
	c37.6,0,68.1-37.3,68.1-83.4c0-46.1-30.5-83.4-68.1-83.4h-225.1c37.6,0,68.1-37.3,68.1-83.4c0-46.1-30.5-83.4-68.1-83.4h342.2
	c37.6,0,68.1-37.3,68.1-83.4C2232.1,1097.3,2201.7,1059.9,2164.1,1059.9z"/>
<ellipse class="st3" cx="1841.5" cy="1591" rx="362.8" ry="21.1"/>
<path class="st3" d="M754,1600.6c0,11.7-109.8,21.1-245.2,21.1c-135.4,0-245.2-9.5-245.2-21.1s109.8-21.1,245.2-21.1
	C644.2,1579.5,754,1588.9,754,1600.6z"/>
<g>
	<g>
		<rect x="1922.3" y="1355.7" class="st4" width="24.4" height="217.7"/>
		<path class="st5" d="M2023.4,1356.4c0,11.9-9.6,21.5-21.5,21.5h-134.8c-11.9,0-21.5-9.6-21.5-21.5v-26.2
			c0-11.9,9.6-21.5,21.5-21.5h134.8c11.9,0,21.5,9.6,21.5,21.5V1356.4z"/>
		<path class="st6" d="M1981.1,945.9c1,3.8-11.3,19.3-39.5,5.9c-24.4-11.6-19.6-81.2-19.6-81.2s7.1-11.6,18.3-8.2
			c25,7.6,17.4,35.1,19.4,63C1961.2,946.5,1979.9,941.6,1981.1,945.9z"/>
		<path class="st7" d="M1886.7,1533.1c-7.1,7.4-26,30.6-31.9,33.7c-5.9,3.1-13.7,6.8-18.2,6.5c-2.5-0.2-6.4-8.4,0.5-14.1l7.8-7.3
			l14.2-26l20.9-11.5C1879.9,1514.4,1891.9,1527.7,1886.7,1533.1z"/>
		<path class="st7" d="M1724.5,1580.2c-10.1-1.8-39.9-4.8-45.7-8c-5.9-3.2-13.3-7.7-15.5-11.5c-1.2-2.1,3.5-9.9,12-7.4l10.4,2.5
			l29.5-2.5l21.1,11C1736.4,1564.3,1731.9,1581.5,1724.5,1580.2z"/>
		<path class="st8" d="M1722.1,1332.9c16.6,74.7,123.2,197.3,125.4,199.1c9.8,4.7,36.6-14.9,37.6-23.1c-1.8-3.5-36.8-120.6-76-192.7
			l11.4-74.7C1820.4,1241.5,1705.5,1258.2,1722.1,1332.9z"/>
		<path class="st6" d="M1884,1223.2c-40.6,7.7-90.3,20.6-134.6,69.7c-49.6,55.1-47.3,250.3-42.8,259.8c4.5,9.4,26.8,22.4,35.3,18
			c8.4-4.3,36.4-216.1,79.5-230.4c56.6-18.7,211.4,19.9,211.4-94.9C2032.7,1205.3,1884,1223.2,1884,1223.2z"/>
		<path class="st9" d="M2032.7,1245.5c-18.5,35.8-150.1-1.1-163.7-12.4c-13.5-11.4,8.8-109.4,8.8-109.4s-14.6-23.5-13-41.8
			c3.1-38,39-99.7,39-99.7l41.4-7.9c0,0,17.1-3.3,37.1,16c32.5,31.3,37.4,128.5,37.4,128.5S2047.8,1216.2,2032.7,1245.5z"/>
		<path class="st10" d="M1889.3,963c5.9,2.6,12.8,0.3,12.8,0.3l1.6,18.8c0,0-3.2,10.6,1.1,11.6c4.3,1,40.3-19.5,40.3-19.5
			c-10.5-28.5-15.7-51.2-15.7-51.2s1.6-6.6-2-20.4c-4.6-17.3-37.3-22.4-37.3-22.4l-19,12c0,0-1.7,10.5,0.4,19.5
			C1874.6,925.6,1874.4,956.3,1889.3,963z"/>
		<path class="st6" d="M1929.3,871.6c-17.8-19.9-59.5,1.5-64.3,15.8c-6.4,18.9,6.8,25.7,6.8,25.7s-1.4-7.6-1.4-11.8
			c16.7,11.5,35.8,2.8,45.8,9.4c7.4,4.8-0.5,7,7.3,15.5c0.8,0.9,7.1,1.8,7.1,1.8l3.6,13.2C1934.3,941.1,1962.3,908.5,1929.3,871.6z"
			/>
		<path class="st10" d="M1923.6,926.2c-4.9,0.1,2.4,5.7,6.1,5.6c2.6-0.1,5.7-2.6,5.9-6.4c0.3-4.2-3-6.3-5.6-6.2
			C1925.4,919.3,1926.9,926.1,1923.6,926.2z"/>
		<path class="st6" d="M1902,918.7c0.3,1.6,1.2,2.9,1.9,2.7c0.7-0.1,1.1-1.6,0.8-3.2c-0.3-1.7-1.2-2.9-1.9-2.7
			C1902,915.6,1901.7,917,1902,918.7z"/>
		<path class="st6" d="M1881.6,922.6c0.3,1.6,0,3.1-0.8,3.2c-0.7,0.1-1.6-1.1-1.9-2.7c-0.3-1.6,0-3.1,0.8-3.2
			C1880.5,919.7,1881.3,920.9,1881.6,922.6z"/>
		<path class="st11" d="M1890.8,920.4c2.5,8.5-3.1,10.1-2.7,12.7c0.4,2.6,4.5,3.4,4.5,3.4"/>
		<path class="st12" d="M1900.7,943c-3.3,3.3-13.1,3.4-14.5-0.2"/>
		<path class="st11" d="M1917.5,952.9c-4,5.7-13.3,8.4-13.3,8.4"/>
		<path class="st13" d="M1898.5,912.4c3.2-2.3,7-2.1,9.2-0.1"/>
		<path class="st13" d="M1882.7,916.4c-3.4-1.3-6.3-0.1-8,2.2"/>
		<g>
			<path class="st2" d="M1897.6,964.1c25.3-4.8,19.2-33.6,17.9-34.7c-1.2-1.1-4.7,2.5-9.1,3c-4.4,0.5-8.1-3.5-17.1-2
				c-4.7,0.8-8.2,3.6-9.7,5.2c-0.9,0.9-3.8,1.5-4.2,2.2C1874.2,939.6,1878.3,967.8,1897.6,964.1z"/>
			<path class="st14" d="M1903.7,936.1c-0.3,0.4-0.9,0.5-1.4,0.2c-7.6-4.7-17.3-2.9-22.7,4.3c-0.4,0.5-1,0.6-1.4,0.4l0,0
				c-0.4-0.3-0.5-1-0.1-1.5c5.9-7.9,16.7-10,25.1-4.8C1903.8,935,1904,935.7,1903.7,936.1L1903.7,936.1z"/>
			<path class="st15" d="M1906.6,942.9c-9.1,3.8-18.9,5.7-28.8,5.5c0-1.2,0-2.4,0-3.6c9.4,0.2,18.7-1.5,27.4-5.2
				C1905.7,940.6,1906.1,941.8,1906.6,942.9z"/>
			<path class="st15" d="M1905.1,949.3c-7.4,3.1-15.4,4.7-23.5,4.5c0-1.2,0-2.4,0-3.6c7.6,0.2,15.1-1.3,22.1-4.2
				C1904.2,947,1904.6,948.2,1905.1,949.3z"/>
			<path class="st2" d="M1925.6,924.7c-0.5,1.3-10.4,9.5-10.4,9.5l-0.9-4.9l12.4-7.6C1926.7,921.7,1926,923.3,1925.6,924.7z"/>
			<path class="st2" d="M1929.2,933.8c-0.5,1.3-13.4,10.3-13.4,10.3l-0.9-4.6l14.1-7.7C1928.9,931.7,1929.6,932.4,1929.2,933.8z"/>
		</g>
		<path class="st10" d="M1901.3,1110c0,0-10.4,46.1-103.7,74c-6.1,1.8,5.2,35.4,5.2,35.4s89.5-4.4,126.6-44.9
			c17.5-19.2,17.3-30,17.3-30L1901.3,1110z"/>
		<path class="st9" d="M1886.9,1110c-1.9-14,10.1-118.1,56.8-126.9c46.7-8.8,53.9,41.3,48.6,63.9c-8.5,36.5-39.8,119.1-52.1,121.5
			C1930.4,1170.3,1888.8,1124,1886.9,1110z"/>
		<path class="st16" d="M1886.9,1110c-1.5-29.9,15.9-86.9,28.9-106"/>
		<path class="st16" d="M1941,1168.9c47.5-61.5,50.9-138.9,52.1-146.9"/>
		<path class="st17" d="M1935.6,919.8c2.6-7.8,3-29.5-4.1-41.5"/>
		<path class="st4" d="M1981.1,1566.5c0,7.7-8.7,13.9-19.4,13.9h-60.3c-10.7,0-19.4-6.2-19.4-13.9l0,0c0-7.7,8.7-13.9,19.4-13.9
			h60.3C1972.4,1552.6,1981.1,1558.9,1981.1,1566.5L1981.1,1566.5z"/>
	</g>
	<path class="st4" d="M2150.1,1239c0,10.8-8.8,19.6-19.6,19.6h-629.6c-10.8,0-19.6-8.8-19.6-19.6l0,0c0-10.8,8.8-19.6,19.6-19.6
		h629.6C2141.3,1219.4,2150.1,1228.2,2150.1,1239L2150.1,1239z"/>
	<polygon class="st18" points="1817.1,1200.9 1768.7,1104.3 1614.7,1104.3 1663.1,1200.9 1663.1,1219.4 1891.9,1219.4 
		1891.9,1200.9 	"/>
	<rect x="1512.3" y="1245.1" class="st4" width="15.3" height="347.7"/>
	<rect x="1599.5" y="1245.1" class="st4" width="15.3" height="347.7"/>
	<rect x="2030.8" y="1245.1" class="st4" width="15.3" height="347.7"/>
	<rect x="2118" y="1245.1" class="st4" width="15.3" height="347.7"/>
</g>
<g>
	<g>
		<polygon class="st4" points="464.1,1601.5 479,1599.4 455.8,1366.5 431.7,1369.9 		"/>
		<polygon class="st4" points="311,1600.6 296,1598.3 316.5,1365.7 340.7,1369.4 		"/>
		<path class="st5" d="M299.9,1359.6c0,9.2,9.6,16.7,21.5,16.7h134.8c11.9,0,21.5-7.5,21.5-16.7v-20.3c0-9.2-9.6-16.7-21.5-16.7
			H321.4c-11.9,0-21.5,7.5-21.5,16.7V1359.6z"/>
		<path class="st7" d="M506.2,1574.4c9.6,3.6,36.7,16.3,43.4,16.5c6.7,0.2,15.3,0.2,19.2-2c2.1-1.2,2.1-10.3-6.5-12.5l-10.2-3.2
			l-24.1-17.3l-23.8-1.3C504.1,1554.6,499.1,1571.7,506.2,1574.4z"/>
		<path class="st7" d="M598.7,1594.2c10.1-1.8,39.9-4.8,45.7-8c5.9-3.2,13.3-7.7,15.5-11.5c1.2-2.1-3.5-9.9-12-7.4l-10.4,2.5
			l-29.5-2.5l-21.1,11C586.9,1578.2,591.3,1595.5,598.7,1594.2z"/>
		<path class="st8" d="M586.9,1299.4c17.5,74.5-44.6,254.3-45.9,256.9c-6.8,8.5-39.4,2.5-43.9-4.5c0.1-3.9-4.4-130.7-0.4-212.6
			l-57.5-86.2C439.2,1253,569.4,1224.9,586.9,1299.4z"/>
		<path class="st6" d="M439.3,1237.2c40.6,7.7,90.3,20.6,134.6,69.7c49.6,55.1,47.3,250.3,42.8,259.8c-4.5,9.4-26.8,22.4-35.3,18
			c-8.4-4.3-36.4-216.1-79.5-230.4c-56.6-18.7-211.4,19.9-211.4-94.9C290.6,1219.2,439.3,1237.2,439.3,1237.2z"/>
		<path class="st19" d="M286.1,1253c18.5,35.8,154.6,5.4,168.2-5.9c13.5-11.4,7.2-93.5,4.2-151.2c-3.1-60-39-99.7-39-99.7l-41.4-7.9
			c0,0-17.1-3.3-37.1,16c-32.5,31.3-37.4,128.5-37.4,128.5S271,1223.6,286.1,1253z"/>
		<path class="st10" d="M433.9,977c-5.9,2.6-12.8,0.3-12.8,0.3l-1.6,18.8c0,0,3.2,10.6-1.1,11.6c-4.3,1-40.3-19.5-40.3-19.5
			c10.5-28.5,15.7-51.2,15.7-51.2s-1.6-6.7,2-20.4c4.6-17.3,37.3-22.4,37.3-22.4l19,12c0,0,1.6,10.5-0.4,19.5
			C448.7,939.6,448.9,970.3,433.9,977z"/>
		<path class="st6" d="M394,885.6c18.5-16,53.6-3,63.1,3.5c9.6,6.5,9.7,22.3-4.4,29.1c-14.1,6.7-25.6-18.4-43.7-7.6
			c-12.6,7.4,0,21.9-12.4,30.7c-1,0.7-4,0.7-4,0.7l-3.6,13.2C389,955.1,362.8,912.4,394,885.6z"/>
		<path class="st10" d="M399.7,940.1c4.9,0.1-2.4,5.7-6.1,5.6c-2.6-0.1-5.7-2.6-5.9-6.4c-0.3-4.2,3-6.3,5.6-6.2
			C397.9,933.2,396.3,940.1,399.7,940.1z"/>
		<path class="st6" d="M421.2,932.6c-0.3,1.6-1.2,2.9-1.9,2.7c-0.7-0.1-1.1-1.6-0.8-3.2c0.3-1.7,1.2-2.9,1.9-2.7
			C421.2,929.6,421.6,931,421.2,932.6z"/>
		<path class="st6" d="M441.6,936.5c-0.3,1.6,0,3.1,0.8,3.2c0.7,0.1,1.6-1.1,1.9-2.7c0.3-1.7,0-3.1-0.8-3.2
			C442.8,933.7,441.9,934.9,441.6,936.5z"/>
		<path class="st11" d="M432.4,934.3c-2.5,8.6,3.1,10.1,2.7,12.7c-0.4,2.6-4.5,3.4-4.5,3.4"/>
		<path class="st12" d="M422.6,957c3.3,3.3,13.1,3.4,14.5-0.2"/>
		<path class="st11" d="M405.8,966.9c4,5.7,13.3,8.4,13.3,8.4"/>
		<path class="st13" d="M424.7,926.4c-3.3-2.3-7-2.1-9.2-0.1"/>
		<path class="st13" d="M440.6,930.3c3.4-1.3,6.3-0.1,8,2.2"/>
		<g>
			<path class="st2" d="M425.7,978.1c-25.3-4.8-19.2-33.6-17.9-34.7c1.2-1.1,4.7,2.5,9.1,3c4.4,0.5,8.1-3.5,17.1-2
				c4.7,0.8,8.2,3.6,9.7,5.2c0.9,0.9,3.8,1.5,4.2,2.2C449.1,953.6,444.9,981.8,425.7,978.1z"/>
			<path class="st14" d="M419.6,950.1c0.3,0.4,0.9,0.5,1.4,0.2c7.6-4.7,17.3-2.9,22.7,4.3c0.4,0.5,1,0.6,1.4,0.4l0,0
				c0.4-0.3,0.5-1,0.1-1.5c-5.9-7.9-16.7-10-25.1-4.8C419.5,949,419.3,949.6,419.6,950.1L419.6,950.1z"/>
			<path class="st15" d="M416.7,956.8c9.1,3.8,18.9,5.7,28.8,5.5c0-1.2,0-2.4,0-3.6c-9.4,0.2-18.7-1.5-27.4-5.2
				C417.6,954.6,417.1,955.7,416.7,956.8z"/>
			<path class="st15" d="M418.2,963.2c7.4,3.1,15.4,4.7,23.5,4.5c0-1.2,0-2.4,0-3.6c-7.6,0.2-15.1-1.3-22.1-4.2
				C419.1,961,418.6,962.1,418.2,963.2z"/>
			<path class="st2" d="M397.7,938.6c0.5,1.3,10.4,9.5,10.4,9.5l0.9-4.9l-12.4-7.6C396.6,935.7,397.3,937.3,397.7,938.6z"/>
			<path class="st2" d="M394.1,947.7c0.5,1.3,13.4,10.3,13.4,10.3l0.9-4.6l-14.1-7.7C394.4,945.7,393.7,946.4,394.1,947.7z"/>
		</g>
		<path class="st10" d="M422,1123.9c0,0,26.6,47.5,103.5,68.4c2.9,0.8,61.4-1,61.4,22.5c0,9.3-90.1,0-90.1,0s-65.7,14.1-102.8-26.4
			c-17.5-19.2-17.3-30-17.3-30L422,1123.9z"/>
		<path class="st19" d="M436.4,1123.9c1.9-14-10.1-118.1-56.8-126.9c-46.7-8.8-53.9,41.3-48.6,63.9c8.5,36.4,39.8,119.1,52.1,121.5
			C392.8,1184.2,434.5,1138,436.4,1123.9z"/>
		<path class="st20" d="M436.4,1123.9c1.5-29.9-15.9-86.9-28.9-106"/>
		<path class="st20" d="M382.3,1182.8c-47.5-61.5-50.9-138.9-52.1-146.9"/>
	</g>
	<path class="st4" d="M477.7,1253c0,10.8,3.4,19.6,7.6,19.6h244.1c4.2,0,7.6-8.8,7.6-19.6l0,0c0-10.8-3.4-19.6-7.6-19.6H485.3
		C481.1,1233.3,477.7,1242.1,477.7,1253L477.7,1253z"/>
	<polygon class="st18" points="618.9,1214.8 667.3,1118.3 693.1,1118.3 644.8,1214.8 644.8,1233.4 496.7,1233.4 496.7,1214.8 	"/>
	<polygon class="st4" points="701.7,1605 716.7,1602.1 650.3,1260.8 635.3,1263.7 	"/>
	
		<rect x="538.5" y="1259" transform="matrix(0.9816 0.1908 -0.1908 0.9816 283.4795 -77.8932)" class="st4" width="15.3" height="347.7"/>
</g>
<g>
	<g>
		<g>
			<rect x="650.7" y="447.5" class="st2" width="974.5" height="628.3"/>
			<rect x="671.2" y="468" class="st21" width="933.5" height="528.3"/>
			<g>
				<path class="st22" d="M1501.2,1035.7c0,11.4-9.2,20.6-20.6,20.6H802.5c-11.4,0-20.6-9.2-20.6-20.6l0,0
					c0-11.4,9.2-20.6,20.6-20.6h678.1C1492,1015.1,1501.2,1024.4,1501.2,1035.7L1501.2,1035.7z"/>
				<path class="st23" d="M1059.4,1022.6H810.5c-9.7,0-17.6,5.9-17.6,13.1c0,7.2,7.9,13.1,17.6,13.1h248.9V1022.6z"/>
				<g>
					<polygon class="st22" points="671.2,1057.9 671.2,1013.6 699.1,1035.7 					"/>
					<rect x="720.4" y="1013.6" class="st22" width="11.8" height="44.3"/>
					<rect x="740.1" y="1013.6" class="st22" width="11.8" height="44.3"/>
				</g>
				<g>
					<polygon class="st22" points="1535.6,1029.3 1535.6,1015.6 1560.3,1015.6 1560.3,1008.4 1528.2,1008.4 1528.2,1029.3 					"/>
					<polygon class="st22" points="1594.8,1029.3 1602.3,1029.3 1602.3,1008.4 1570.1,1008.4 1570.1,1015.6 1594.8,1015.6 					"/>
					<polygon class="st22" points="1594.8,1041.6 1594.8,1055.9 1570.1,1055.9 1570.1,1063 1602.3,1063 1602.3,1041.6 					"/>
					<polygon class="st22" points="1535.6,1041.6 1528.2,1041.6 1528.2,1063 1560.3,1063 1560.3,1055.9 1535.6,1055.9 					"/>
				</g>
			</g>
		</g>
		<g>
			<path class="st24" d="M1450.6,996.3c-16.1-34.5-42.2-77.1-80.6-101.9c-45.2-29.2-171.3-41.4-171.3-41.4h-128.1
				c0,0-117.2,0-184.1,61.8c-27.8,25.6-47.2,56-60.2,81.5H1450.6z"/>
			<path class="st10" d="M1199.1,853c0,0-8.7,22.9-63.8,22.9c-53.5,0-66.8-22.9-66.8-22.9l17.1-81.7l93.6-5.3L1199.1,853z"/>
			<path class="st10" d="M1202.1,618.6c0-11.8-13.8-70.9-74.8-70.9c-71,0-74.6,59.1-74.6,70.9c-0.2,48.4-15.5,142,42,169.9
				c8.2,4,23.4,5,32.7,5.1c9.3-0.1,27.9-0.6,42.8-9.6C1222.9,752.2,1202.3,667.1,1202.1,618.6z"/>
			<path class="st6" d="M1225.4,588.2c-2.2-36.5-0.4-69.9-59.1-85.2c-56.8-14.8-127.6,20-127.6,55.4c-36.6-2.4,2.9,108.8,2.9,108.8
				s11.9,32.5,12.3,14.9c0.2-11,8.4-22.5,8.4-22.5s-12.7-48.4,2-72.2c24.6-39.8,52-7,109.9,6c34.2,7.7,22.9,59.7,22.9,59.7
				s8.2,8.1,8.4,19.1c0.3,17.6,9.7-15.5,9.7-15.5S1227.4,621.6,1225.4,588.2z"/>
			<path class="st10" d="M1191.2,675.8c-14.7,2,8.6,19.3,19.7,17.6c7.9-1.2,16.5-10.9,16.4-24.5c-0.1-15-10.6-21.2-18.5-20
				C1195,650.9,1201.3,674.4,1191.2,675.8z"/>
			<path class="st6" d="M1093.3,653.2c0,3.6-2.1,6.5-4.7,6.5c-2.6,0-4.7-2.9-4.7-6.5c0-3.6,2.1-6.5,4.7-6.5
				C1091.2,646.7,1093.3,649.6,1093.3,653.2z"/>
			<path class="st6" d="M1164.7,653.2c0,3.6,2.1,6.5,4.7,6.5c2.6,0,4.7-2.9,4.7-6.5c0-3.6-2.1-6.5-4.7-6.5
				C1166.8,646.7,1164.7,649.6,1164.7,653.2z"/>
			<path class="st25" d="M1107.2,730.4c11.3,13.3,44.2,12.6,49.7-3.1"/>
			<path class="st26" d="M1111.5,788.3c21.2,11.4,47.5,1,47.5,1"/>
			<g>
				<path class="st26" d="M1132.2,651.9c-1.4,11.9-0.3,41.1-0.3,41.1"/>
				<path class="st27" d="M1121.5,698.4c0,0,11.7-8.5,21.1-0.9"/>
			</g>
			<path class="st28" d="M1159.1,621.6c8.2-4.5,19.9-4.7,26.8,3.1"/>
			<path class="st28" d="M1100.3,621.6c-8.2-4.5-20-4.7-26.8,3.1"/>
			<path class="st10" d="M1060.7,675.2c14.8,2.1-8.5,19.2-19.6,17.5c-7.9-1.3-16.6-11.1-16.7-24.7c-0.1-15,10.4-21,18.3-19.8
				C1056.6,650.3,1050.6,673.7,1060.7,675.2z"/>
			<g>
				<path class="st2" d="M1135.2,788.3c73.4,0,73.6-90.7,70.7-95.2c-3-4.5-13.8,14.5-26.6,13.4c-12.8-1.1-21.4-17.4-47.9-17.4
					c-35,0-35.4,20.7-52.2,19.1c-17.5-1.6-22.9-18.3-26.8-15.2C1048.6,696.2,1043.6,788.3,1135.2,788.3z"/>
				<path class="st14" d="M1169.5,717.2c-1.1,1.3-2.9,1.1-4.2-0.3c-19.1-20.5-48.1-20.5-67.2,0c-1.3,1.4-3.2,1.5-4.2,0.3l0,0
					c-1.1-1.3-0.8-3.6,0.6-5.2c21.2-22.7,53.2-22.7,74.4,0C1170.4,713.6,1170.6,715.9,1169.5,717.2L1169.5,717.2z"/>
				<path class="st15" d="M1174.1,741.5c-28.2,7-57.2,7-85.3,0c0.7-4,1.4-8,2-12c26.8,6.7,54.5,6.7,81.2,0
					C1172.8,733.5,1173.4,737.5,1174.1,741.5z"/>
				<path class="st15" d="M1166.2,761.8c-23,5.8-46.6,5.8-69.6,0c0.7-4,1.4-8,2-12c21.6,5.4,43.9,5.4,65.5,0
					C1164.9,753.9,1165.6,757.8,1166.2,761.8z"/>
			</g>
			<polygon class="st29" points="1263,866.1 1164.7,926.1 1142.9,875.7 1191.8,820.9 			"/>
			<polygon class="st29" points="1015.8,858.4 1116.4,926.1 1142.9,875.7 1073.5,820.9 			"/>
		</g>
	</g>
	<g>
		<path class="st2" d="M1377.9,730.3c23.5,69.2-46.8,114.5-46.8,114.5s118.9-10,140.3-96.2L1377.9,730.3z"/>
		<path class="st2" d="M1745,602.8c0,99.9-104,180.9-232.4,180.9c-128.3,0-232.4-81-232.4-180.9c0-99.9,104.1-180.9,232.4-180.9
			C1640.9,421.9,1745,502.9,1745,602.8z"/>
		<path class="st6" d="M1450.1,602.8c0,14.9-12.1,27-27,27c-14.9,0-27-12.1-27-27c0-14.9,12.1-27,27-27
			C1438,575.8,1450.1,587.9,1450.1,602.8z"/>
		<path class="st6" d="M1539.3,602.8c0,14.9-12.1,27-27,27c-14.9,0-27-12.1-27-27c0-14.9,12.1-27,27-27
			C1527.2,575.8,1539.3,587.9,1539.3,602.8z"/>
		<path class="st6" d="M1629.1,602.8c0,14.9-12.1,27-27,27c-14.9,0-27-12.1-27-27c0-14.9,12.1-27,27-27
			C1617,575.8,1629.1,587.9,1629.1,602.8z"/>
	</g>
</g>
<g>
	<g>
		<path class="st2" d="M1840.9,887.8c0,17.8-14.4,32.1-32.1,32.1h-144.6c-17.7,0-32.1-14.4-32.1-32.1v-77.1
			c0-17.7,14.4-32.1,32.1-32.1h144.6c17.8,0,32.1,14.4,32.1,32.1V887.8z"/>
		<polygon class="st2" points="1814.5,966.9 1772,914.1 1814.5,907.3 		"/>
	</g>
	<rect x="1662.1" y="812.1" class="st30" width="74.3" height="9.8"/>
	<rect x="1750" y="812.1" class="st30" width="64.5" height="9.8"/>
	<rect x="1662.1" y="833.6" class="st30" width="43.2" height="9.8"/>
	<rect x="1722.7" y="833.6" class="st30" width="91.7" height="9.8"/>
	<rect x="1662.1" y="853.7" class="st30" width="74.3" height="9.8"/>
	<rect x="1750" y="853.7" class="st30" width="64.5" height="9.8"/>
	<rect x="1662.1" y="875.2" class="st30" width="43.2" height="9.8"/>
	<rect x="1722.7" y="875.2" class="st30" width="91.7" height="9.8"/>
</g>
</svg>
